<svg id="e73badef-ffe4-4f7d-8de4-778ab80ea600" data-name="Ebene 1" xmlns="http://www.w3.org/2000/svg" width="210mm" height="297mm" viewBox="0 0 595.28 841.89"><defs><style>.e13c5da5-30fd-450b-b7cb-0904f8ca9fbd{fill:#b9b9b9;}.a345ff2f-604d-44c8-afe0-de9a07e4fd71{fill:#bababa;}.a0d3d0e8-6059-427d-ab1b-9b0c3f375e67{fill:#e9e9e9;}.a1c8e173-a527-48e8-b40e-5127b41ac950{fill:#e8e8e8;}.ab613986-171b-4f14-9108-4e18c6ac744b{fill:#bbb;}.b5bda0be-7ad8-4af7-9d0e-52b8b6253433{fill:#bcbcbc;}.ad8ae340-c419-4aec-b9f5-a162bc640a56{fill:#060606;}.ec869d71-1686-4e15-8375-6c0e8dc8e88f{fill:#070707;}.f1760781-ac50-46c6-9ec5-a8d78c1a45e4{fill:#474747;}.e1335ee0-7b59-4daf-a84c-5b5bff941de3{fill:#c7c7c7;}.b7680bbb-5749-4cad-862f-d8343478496a{fill:#4b4b4b;}</style></defs><title>Zeichenfläche 1</title><path class="e13c5da5-30fd-450b-b7cb-0904f8ca9fbd" d="M374.85,457.34a4.1,4.1,0,0,1,1.66-3.26c2.2-1.72,4.57-3.08,7.5-3h2.86l3.73,1.86c.32.58.54,1.08.84,1.52.43.67,1,1.27,1.37,1.95a7.58,7.58,0,0,1,.8,6.84,16.33,16.33,0,0,1-.85,2,5,5,0,0,0-.42,3.81,5.67,5.67,0,0,0,1.29.32c1.27,0,2.54,0,3.82,0l6.22.05,1.38.95c.74,1.52.52,3.15.59,4.75a4.34,4.34,0,0,1-3.54,2.86c-2,.41-4,.95-6.07,1.35-1,.2-2.08.11-3.09.31-1.41.27-2.77.78-4.18,1-2,.33-4.11.52-6.16.74-2.46.27-4.92.47-7.37.76-2.23.26-4.45.46-6.69-.64l-1.2-2.3c-6,.64-11.92,1.79-17.85,2.91a3.1,3.1,0,0,0-.88.52c.12,1.05.24,2.06.34,3.07s.21,2.06.32,3.09c0,.4.13.79.14,1.19a64.77,64.77,0,0,0,.89,7.34c.27,1.89.38,3.81.61,5.71s.5,3.62.75,5.44c0,.31.12.62.15.94.18,2.22.32,4.45.55,6.67s.62,4.57.84,6.87c.14,1.51.31,3,.48,4.51.52,4.76,1.42,9.45,2.31,14.15.85,4.46,1.7,8.93,2.58,13.38.26,1.33.6,2.65.92,4,1.26,5.19,2.48,10.4,3.81,15.57.9,3.48,2,6.92,3,10.36,1.45,4.9,2.91,9.8,4.43,14.68.5,1.59,1.19,3.13,1.8,4.69l-.5,1.43-1,.48a2.1,2.1,0,0,1-1.88-1.6c-.81-2.41-1.64-4.82-2.39-7.25-.71-2.28-1.25-4.6-2-6.85-3.14-9.44-5.64-19-7.95-28.71-1.27-5.32-2.36-10.68-3.43-16-.63-3.19-1-6.41-1.57-9.61-.25-1.49-.72-3-.83-4.43-.17-2.22-.8-4.39-.61-6.64a20.83,20.83,0,0,0,0-2.09,5.64,5.64,0,0,0-.42-1.28,2.36,2.36,0,0,0,0-.46c0-1,0-2,0-3a5.29,5.29,0,0,0-.43-1.29c0-.48,0-1,0-1.43,0-.7,0-1.4,0-2.1A6,6,0,0,0,349,512c-.07-.62-.14-1.25-.23-1.86a15.25,15.25,0,0,1-.24-1.63,12.19,12.19,0,0,0-.32-2.55,18.3,18.3,0,0,1-.19-3.06c-.09-1,.3-2-.46-2.88h0a21,21,0,0,0,0-2.1,6.18,6.18,0,0,0-.44-1.27h0c0-.86,0-1.73-.06-2.58a5.75,5.75,0,0,0-.43-1.29c0-.31,0-.62,0-.93,0-.86,0-1.72,0-2.57a5.51,5.51,0,0,0-.43-1.28h0c0-1,0-2,0-3.06a5.29,5.29,0,0,0-.43-1.29v-2.88l1.43-.93c.86,0,1.73,0,2.59,0a5.29,5.29,0,0,0,1.29-.43c.55-.06,1.12-.06,1.66-.17a71.41,71.41,0,0,1,8.24-1.33,59.88,59.88,0,0,0,6.37-1,4,4,0,0,0,1.67-.87,13.09,13.09,0,0,1,4.85-2.52c1.76-.49,3.55-.89,5.32-1.37a10.5,10.5,0,0,0,1.5-.69,6.53,6.53,0,0,0-2.61-4,22.44,22.44,0,0,1-2.17-1.86,4,4,0,0,1-1.33-3.44,17.57,17.57,0,0,0,0-1.92C375.15,459.36,374.76,458.32,374.85,457.34Zm3,5.25a8.84,8.84,0,0,0,2.89,3.3,7.34,7.34,0,0,1,3.13,4.66,2.73,2.73,0,0,1-1.7,3.28,10.92,10.92,0,0,1-1.16.29c-2.31.61-4.63,1.15-6.92,1.83-2,.59-2.53,1.42-2.69,3.82a15.34,15.34,0,0,0,4-.1A33,33,0,0,1,381,479a30.61,30.61,0,0,0,5.92-.7c3.2-.64,6.39-1.28,9.61-1.8a19.17,19.17,0,0,0,6.37-1.78,2.3,2.3,0,0,0-.33-2.22,4.36,4.36,0,0,0-2.32-.29c-2.55,0-5.11,0-7.66,0a14.16,14.16,0,0,1-1.69-.18,4.53,4.53,0,0,1-1.16-5.22c.29-.74.56-1.49.9-2.21a5.09,5.09,0,0,0,.55-2.3c0-1,0-2.06,0-3.08-.82-1.11-1.62-2.1-2.3-3.17a5,5,0,0,0-3.38-2,28.45,28.45,0,0,0-3.06-.4,8.6,8.6,0,0,0-4.67,3.65Z"/><path class="e13c5da5-30fd-450b-b7cb-0904f8ca9fbd" d="M236.1,646.47c.15.62.3,1.24.43,1.86a4.79,4.79,0,0,1-.76,3.66,3.85,3.85,0,0,1-2.61,1.56c-3.58.8-7.17,1.56-10.81,2a3.74,3.74,0,0,0-1.18.18,12.21,12.21,0,0,1-4.18.88c-3.08.43-6.18.55-9.26.92a36.43,36.43,0,0,1-5,.45,6.83,6.83,0,0,1-3.39-.84l-1.1-2.26c-2.08-.11-4.07.58-6.11.76a41.65,41.65,0,0,0-6.37,1c-2,.48-4.08.54-6,1.26a7.35,7.35,0,0,0-.08,3.69,11.78,11.78,0,0,1,.26,1.65,62.34,62.34,0,0,0,.89,7.83c.27,1.81.38,3.64.6,5.46s.54,3.78.77,5.68c.25,2.06.43,4.12.66,6.18.26,2.45.54,4.9.81,7.35,0,.32.1.64.11,1a111.41,111.41,0,0,0,1.87,14.21c.66,3.68,1.23,7.39,1.95,11.06q1.38,6.93,3,13.81t3.34,13.72c.82,3.17,1.78,6.3,2.71,9.44,1.36,4.6,2.72,9.19,4.13,13.77.78,2.52,1.67,5,2.59,7.75l-.32.86,0,0c-1.75.29-2.69-.65-3.21-2.18s-1-3-1.5-4.55c-1-3.37-1.85-6.78-3-10.11-2.39-7.2-4.35-14.52-6.14-21.89-.66-2.71-1.41-5.41-2-8.14-1.09-5.23-2.09-10.47-3.09-15.71-.63-3.29-1.19-6.58-1.79-9.87A27.14,27.14,0,0,1,182,706c-.15-3.5-1.1-6.92-1-10.44a6.28,6.28,0,0,0-.14-.94c-.11-.86-.21-1.73-.3-2.6-.07-.71-.1-1.43-.17-2.14-.09-.87-.21-1.74-.31-2.6-.06-.56-.08-1.12-.15-1.67-.27-2.13-.55-4.25-.81-6.38-.21-1.81-.33-3.64-.61-5.45a47.86,47.86,0,0,1-.86-6.85,2.73,2.73,0,0,0-.12-1,8.88,8.88,0,0,1-.35-3.07,5.66,5.66,0,0,0-.12-1.66,11,11,0,0,1-.36-3.32c-.2-1.73.06-2.05,1.94-2.41a20.79,20.79,0,0,0,2.09,0,6.06,6.06,0,0,0,1.28-.44c.63-.08,1.26-.13,1.89-.23l7.5-1.23,4-.67a13.28,13.28,0,0,1,1.88-.26,4,4,0,0,0,3-1.25,8.07,8.07,0,0,1,4.14-2.19c1.93-.45,3.75-1.3,5.74-1.57.36-.05.67-.38,1-.57a2.65,2.65,0,0,0-.89-2.41c-.77-.8-1.65-1.49-2.49-2.21a5.45,5.45,0,0,1-2.26-3.75V634c-.11-2.57,1.57-4,3.43-5.27a30.13,30.13,0,0,1,2.94-1.51c1-.55,2.17-.34,3.25-.46l2.87,0a10,10,0,0,1,5.16,4.59c.51.88,1,1.75,1.57,2.62v4.79c-.57,1.29-1.16,2.57-1.7,3.87a1.82,1.82,0,0,0,.33,2.11c1.46.58,3.11.19,4.73.25h6.23Zm-33.76,8.89a9.21,9.21,0,0,0,3.47,0,44.34,44.34,0,0,1,6.16-.7,24.24,24.24,0,0,0,5.92-.72c3.72-1,7.53-1.32,11.27-2.12,1.58-.33,3-1,4.43-1.41a2,2,0,0,0-.66-2.47c-.67,0-1.53-.08-2.4-.08-2.4,0-4.8,0-7.2,0a2.63,2.63,0,0,1-2.72-1.9,6,6,0,0,1-.29-1.64,6.68,6.68,0,0,1,1-3.66,8.18,8.18,0,0,0,.8-5.52c-.6-.92-1.27-2-2-3a5.28,5.28,0,0,0-2.72-2.26,27.87,27.87,0,0,0-3.76-.65,2.17,2.17,0,0,0-1.14.28c-2.68,1.25-4.43,3.12-4.12,6.33a4.33,4.33,0,0,1,0,.72,4,4,0,0,0,1.28,3.23,9.53,9.53,0,0,0,1.77,1.6,7.7,7.7,0,0,1,2.39,2.63,5.18,5.18,0,0,1,.48,4.75,6.42,6.42,0,0,1-2.5,1c-2,.5-4,1-6,1.51a10.06,10.06,0,0,0-2.4,1.05A2.19,2.19,0,0,0,202.34,655.36Z"/><path class="e13c5da5-30fd-450b-b7cb-0904f8ca9fbd" d="M350.4,657.49c0-.3,0-.59,0-.89a1,1,0,0,1,.93-1.05,10.93,10.93,0,0,0,1.62,0,6.52,6.52,0,0,0,1.27-.42,15.28,15.28,0,0,0,1.66-.15c2.63-.54,5.26-1,7.94-1.35,2.9-.36,5.76-1,8.8-1.52.32-.25.74-.6,1.18-.93a12,12,0,0,1,4.9-2.31c.93-.18,1.81-.58,2.72-.84s1.69-.4,2.54-.6c1.44-.16,1.56-.34,1-1.44l-.5-1a2.88,2.88,0,0,0-2.4-2.39,6.18,6.18,0,0,1-2.89-3.86V634a6.46,6.46,0,0,1,3.64-5.71,17.87,17.87,0,0,1,6.33-1.89,5,5,0,0,1,2.1.22c1.13.36,2.21.87,3.08,1.22a30.27,30.27,0,0,1,4.1,6.16c0,1.44,0,2.87,0,4.3-.6,1.52-1.22,3-1.78,4.55a1.36,1.36,0,0,0,.31,1.7c.27.15.54.41.81.41,1.87,0,3.74,0,5.61,0a2.36,2.36,0,0,0,.82-.39,13.26,13.26,0,0,0,1.41,0,5.8,5.8,0,0,1,3.78,1c.35,1.27,1.23,2.4,1,3.82-.26,2.41-1.7,3.66-4,4.13-1.72.35-3.41.87-5.15,1.09a44.12,44.12,0,0,0-8.21,1.51,10,10,0,0,1-2.1.43,60.87,60.87,0,0,1-7.87.56c-.54,0-1.1.22-1.65.24-2.23.08-4.47.19-6.7.14a5.74,5.74,0,0,1-1.87-.71c-.29-.76-.51-1.34-.83-2.2-6.22.9-12.41,1.76-18.53,3.22a6.75,6.75,0,0,0-.11,3.15q.41,3.55.83,7.11c.23,1.9.46,3.79.7,5.69s.52,3.78.74,5.68.31,3.82.58,5.71a74,74,0,0,1,.89,8.78c0,.32,0,.64.08,1,.28,2.29.55,4.58.86,6.87.37,2.84.73,5.69,1.2,8.51s1.14,5.63,1.59,8.46c.91,5.75,2.17,11.43,3.47,17.11.93,4,1.9,8.08,3,12.08,1.35,4.93,2.82,9.82,4.26,14.72.4,1.38.88,2.74,1.32,4.11,1.43,4.4,2.26,9,4.28,13.25-.3.48-.59,1-.89,1.41l0,0a2.22,2.22,0,0,1-2.45-1.82c-.14-.45-.33-.9-.47-1.35-1.84-5.87-3.7-11.72-5.51-17.59-.93-3-1.84-6.11-2.63-9.2-2.6-10-5.09-20.08-6.89-30.29-.72-4.07-1.49-8.14-2.23-12.21-.16-1.34-.31-2.68-.46-4a48.16,48.16,0,0,0-.6-5c-.55-2.5-.34-5.06-.79-7.58-.39-2.18-.34-4.44-.61-6.65-.38-3.15-1-6.28-1.29-9.44-.27-3.33-1.06-6.6-1.07-10a1.89,1.89,0,0,0-.11-.71,8.6,8.6,0,0,1-.35-3.07,5.36,5.36,0,0,0-.13-1.66A11,11,0,0,1,350.4,657.49Zm25.79-2.58a11.53,11.53,0,0,0,4.86,0,27.55,27.55,0,0,1,4-.35,12.13,12.13,0,0,0,1.91-.05c2.9-.53,5.79-1.1,8.67-1.68a37.48,37.48,0,0,1,4.24-.7,21.05,21.05,0,0,0,7.32-1.88,2.33,2.33,0,0,0-.21-2.58,13,13,0,0,0-5.63-.05,26.32,26.32,0,0,1-4.77.21,2.13,2.13,0,0,1-1.8-1,4.58,4.58,0,0,1-.53-4.12c.34-1.15.82-2.25,1.19-3.39a8.78,8.78,0,0,0,.49-2.07c.25-3-1.53-4.93-3.5-6.71-1.66-1.49-3.8-1.54-5.9-1.28a3.77,3.77,0,0,0-1.7.81,12.77,12.77,0,0,0-1.73,1.64,3.78,3.78,0,0,0-1,2.62v3.32a7.89,7.89,0,0,0,2.93,3.44,7.31,7.31,0,0,1,1.72,1.66,5.6,5.6,0,0,1,1.3,5.6,8.31,8.31,0,0,1-3.7,1.46c-1.94.48-3.86,1-5.77,1.56a4.39,4.39,0,0,0-2.31,1.64A1.5,1.5,0,0,0,376.19,654.91Z"/><path class="e13c5da5-30fd-450b-b7cb-0904f8ca9fbd" d="M351.37,700.18l0-1.42c0-.7,0-1.4,0-2.09a6.3,6.3,0,0,0-.43-1.29l0-1.42c-.08-1,.31-2-.45-2.89l0-1a20.79,20.79,0,0,0,0-2.09,6.22,6.22,0,0,0-.43-1.28l0-1c-.09-1,.29-2-.46-2.89l0-1.43c-.08-1,.31-2-.44-2.91l0-1.4c0-1,0-2,0-3a5.29,5.29,0,0,0-.43-1.29c-.67-1.54-.39-3.19-.51-4.79,0-.86,0-1.72,0-2.57a5.26,5.26,0,0,0-.42-1.29v-.93c0-1.28,0-2.56,0-3.84v0a3.26,3.26,0,0,1,2.24.4c.17,1.44.63,2.94.68,4.56.06,2,.4,4,.63,5.93s.53,4.26.74,6.39c.22,2.3.37,4.61.56,6.91,0,.16.07.31.09.47.27,2.13.55,4.26.79,6.39.22,1.9.22,3.83.61,5.69.52,2.52.32,5.08.8,7.6.37,1.94.41,4,.63,5.93,0,.21.24.4.37.6a15.63,15.63,0,0,0,.43,3.79c.65,3.44,1.16,6.91,1.83,10.34.77,4,1.65,8,2.47,11.93.35,1.72.74,3.43,1,5.17a72.87,72.87,0,0,0,2.83,11.84c1.31,4,2.68,8,4,12a54.79,54.79,0,0,1,1.81,6.2,65.68,65.68,0,0,0,3.8,11.82,3.47,3.47,0,0,0,1.58,2.18c.36-.09.83-.17,1.27-.32l12.49-4.15c3.86-1.29,7.69-2.65,11.58-3.84,5.11-1.56,10.26-3,15.47-4.13,5.37-1.2,10.79-2,16.22-2.88.94-.14,1.88-.31,2.82-.47,3-.49,6-1,8.95-1.49,1.49-.25,3-.63,4.45-.84a4.11,4.11,0,0,1,3,.43,3,3,0,0,1-1.42,2.38c-1,0-2,0-3.05,0a5.29,5.29,0,0,0-1.29.43c-2.95.58-5.89,1.23-8.89,1.62-1.33.18-2.64.52-4,.75-1.79.32-3.58.67-5.39.89-1.49.18-3,.23-4.49.55-2.71.57-5.47,1-8.19,1.53-1.4.29-2.73.9-4.14,1.13a52.41,52.41,0,0,0-6.43,1.82c-1.44.43-2.93.72-4.36,1.19-2.19.72-4.33,1.59-6.53,2.29-2.95,1-6,1.64-8.9,2.73-3.13,1.17-6.43,1.91-9.39,3.56-.41.23-.85.39-1.34.62-.27-.25-.59-.42-.7-.67-1.28-2.92-2.51-5.86-3.79-8.77a37.33,37.33,0,0,1-1.91-6.14c-.81-3.4-1.81-6.76-2.85-10.11s-2.23-6.8-3.4-10.19a71.79,71.79,0,0,1-2.68-10.62c-.66-3.59-1.47-7.15-2.19-10.73s-1.42-7-2.1-10.5c-.49-2.57-1-5.14-1.37-7.73-.28-1.8-.26-3.65-.6-5.43a21.34,21.34,0,0,1-.45-4.5c0-.86,0-1.73,0-2.58A5.75,5.75,0,0,0,351.37,700.18Z"/><path class="e13c5da5-30fd-450b-b7cb-0904f8ca9fbd" d="M175.69,683.38l0-1.41a18.33,18.33,0,0,0,0-2.1,6.3,6.3,0,0,0-.43-1.29l0-1.41c0-.86,0-1.73,0-2.58a5.75,5.75,0,0,0-.43-1.29,19.71,19.71,0,0,1-.5-4.78c0-1,0-2,0-3a5.26,5.26,0,0,0-.42-1.29l0-1c0-1.11,0-2.22,0-3.34.54-.63,1.27-.44,2-.48a9.77,9.77,0,0,1,.46,1.35,41,41,0,0,1,.61,5.2c.15,2,.67,4.07.8,6.12.13,2.22.77,4.4.55,6.65a4.38,4.38,0,0,0,.11.94c.11,1,.24,2.05.34,3.07.06.56,0,1.12.13,1.67.25,1.8.59,3.6.79,5.41.24,2.13.37,4.27.56,6.4,0,.24.06.48.09.71.28,2.28.57,4.56.82,6.85.22,2,.38,4,.6,5.92,0,.21.24.4.36.6.07,1,.07,2.08.21,3.1.19,1.34.48,2.66.73,4,.82,4.39,1.62,8.78,2.47,13.16.6,3.13,1.27,6.25,1.91,9.37s1.21,6.1,1.91,9.13a40.3,40.3,0,0,0,1.41,4.82,192.65,192.65,0,0,1,5.8,18.51,59,59,0,0,0,2.92,9.36,19.42,19.42,0,0,0,2.23,4.28c.73-.23,1.42-.43,2.09-.67,1.13-.4,2.23-.86,3.37-1.23,5.32-1.74,10.64-3.45,16-5.18,1.67-.55,3.32-1.13,5-1.66s3.21-1,4.82-1.44c1.23-.36,2.44-.8,3.68-1.05,4.38-.87,8.69-2,13.11-2.74,3.69-.6,7.4-1.16,11.08-1.8l10.35-1.83a21.37,21.37,0,0,1,5.46-.55,1.64,1.64,0,0,1,1.52,1l-.75,1.28-3.08.63c-1,.08-2-.28-2.93.47-.77.16-1.54.36-2.33.46a18.33,18.33,0,0,1-4.25.54,1.39,1.39,0,0,0-.7.1C261,773.47,258,773.48,255,774c-2.72.5-5.48.82-8.19,1.43a18.8,18.8,0,0,1-2.59.38c-2.72.21-5.24,1.29-7.88,1.84a108.83,108.83,0,0,0-12.14,3.55c-5.07,1.68-10.18,3.28-15.26,4.92a57.65,57.65,0,0,0-7.58,2.94,8.09,8.09,0,0,1-1.42.38,9.24,9.24,0,0,1-.67-1c-.28-.58-.44-1.2-.75-1.76a65,65,0,0,1-5.5-15,118.33,118.33,0,0,0-4.66-15,74.56,74.56,0,0,1-3.06-10.79c-.55-2.31-.95-4.66-1.41-7-.55-2.72-1.1-5.44-1.63-8.17-.63-3.19-1.43-6.34-1.84-9.58-.27-2.12-.86-4.19-1.21-6.3a26.46,26.46,0,0,1-.19-3.1c-.09-1,.29-2-.46-2.9l0-.93c-.09-1,.3-2-.46-2.9l0-1c0-.85,0-1.71,0-2.57a5.32,5.32,0,0,0-.42-1.28l0-1.43a20.79,20.79,0,0,0,0-2.09,6.22,6.22,0,0,0-.43-1.28l0-.94c-.09-1,.3-2-.46-2.91l0-.93a21,21,0,0,0,0-2.1,6.3,6.3,0,0,0-.43-1.29l0-.93C176.07,685.31,176.44,684.25,175.69,683.38Z"/><path class="a345ff2f-604d-44c8-afe0-de9a07e4fd71" d="M371.05,606.13l1-.48a3.14,3.14,0,0,0,2.42-.95,9.38,9.38,0,0,0,1.4-.28c5.79-2.07,11.52-4.32,17.38-6.18,4.55-1.45,9.24-2.51,13.9-3.59,3.34-.76,6.73-1.3,10.11-1.85,4.48-.74,9-1.37,13.46-2.08q5.65-.9,11.31-1.9c.93-.16,1.84-.45,2.66-.65a2.83,2.83,0,0,0,0-2.45c-.62-2-1.26-4-1.81-6-1.54-5.53-3-11.09-4.55-16.63-1.33-4.76-2.25-9.62-3.22-14.47-.5-2.49-.76-5-1.14-7.56-.25-1.65-.58-3.29-.79-5-.26-2-.31-4-.67-5.93-.51-2.76-.18-5.58-.84-8.32a4.26,4.26,0,0,1-.06-.95c0-2.72-.61-5.38-.85-8.07-.32-3.67-1.11-7.25-1.63-10.87-.63-4.49-1.55-8.95-2.2-13.44a71.22,71.22,0,0,1-1.14-10.2c0-1.51-.31-3-.42-4.52a22.19,22.19,0,0,0-.37-4.52,2.43,2.43,0,0,1,.8-2.74,1.11,1.11,0,0,1,1.39,1.07c.08.71.06,1.43.09,2.15,0,1.18,0,2.35,0,3.53a5,5,0,0,0,.42,1.29l0,1.9c0,1,0,2,0,3.05a5.15,5.15,0,0,0,.43,1.29,24.43,24.43,0,0,0,.63,6.38c.44,2.81,1,5.6,1.34,8.44.27,2.28.77,4.52,1.14,6.79.27,1.64.48,3.29.75,4.93.3,1.87.64,3.74,1,5.6.09,1-.29,2,.46,2.91,0,.47,0,.94,0,1.42,0,.7,0,1.4,0,2.1a6.43,6.43,0,0,0,.43,1.28v1.41c0,1,0,2,0,3.06a5.43,5.43,0,0,0,.43,1.29c0,.47,0,.94,0,1.41a18.36,18.36,0,0,0,0,2.1,6,6,0,0,0,.43,1.28l0,1c.09,1-.29,2,.46,2.89-.22,2.09.35,4.12.61,6.16.4,3.07,1.14,6.09,1.67,9.13.82,4.63,1.91,9.19,3.14,13.72,1.82,6.69,3.53,13.4,5.7,20a11.72,11.72,0,0,0,1.58,4,1.94,1.94,0,0,1,0,2,2.9,2.9,0,0,1-1.83,1.06c-2,.37-4.06.7-6.09,1.05-1,0-2-.3-2.89.45a14.34,14.34,0,0,1-3.22.52,17.24,17.24,0,0,0-3,.44c-.83.07-1.72-.21-2.43.48l-4.43.77a7.78,7.78,0,0,1-.94.18,34.5,34.5,0,0,0-8.43,1.35c-2.4,0-4.66.86-7,1.06a5.31,5.31,0,0,0-.71.08c-4.13,1.17-8.34,2-12.47,3.15-5,1.44-9.76,3.39-14.6,5.2-2.67,1-5.37,1.94-8.12,2.94C370.71,608.25,371.2,607.08,371.05,606.13Z"/><path class="e13c5da5-30fd-450b-b7cb-0904f8ca9fbd" d="M439.19,704.56a21.61,21.61,0,0,0,.37,4.52c.38,1.77.36,3.63.63,5.44.47,3.15,1,6.29,1.55,9.41,1.14,6,2.56,12,4.16,17.91q1.39,5.2,2.87,10.37c.83,2.91,1.72,5.81,2.57,8.72a5.33,5.33,0,0,0,1.78,3l-.5,2c-2.58.5-5.15,1-7.73,1.49-2.43.42-4.88.73-7.31,1.13-3.53.57-7.06,1.19-10.59,1.77-2.35.38-4.73.67-7.07,1.09-3.06.54-6.12,1.08-9.14,1.78-4.19,1-8.41,1.89-12.49,3.22-6.67,2.18-13.24,4.67-19.85,7-.59.21-1.17.45-1.88.73-.26-.47-.63-.86-.64-1.25a5.49,5.49,0,0,1,.41-1.59l0,0,2.7-1c2.55-.92,5.12-1.8,7.65-2.78A150.83,150.83,0,0,1,422,768.31c2.53-.32,5-.84,7.54-1.25l9.9-1.59c2.91-.48,5.81-1,8.71-1.5a7.69,7.69,0,0,0,1.53-.66c-.2-.89-.33-1.68-.55-2.44-1.13-3.9-2.3-7.8-3.42-11.71-1.75-6.14-3.47-12.28-4.73-18.55-.74-3.67-1.52-7.33-2.13-11-.49-3-.7-6-1.13-9a59.76,59.76,0,0,1-.91-8.54c0-.32-.07-.64-.1-.95-.12-1.11-.25-2.22-.35-3.32-.05-.56,0-1.12-.08-1.68-.28-2.29-.57-4.57-.87-6.86-.14-1.1-.31-2.21-.47-3.31-.41-2.75-.79-5.51-1.23-8.26-.35-2.28-.78-4.55-1.15-6.83-.45-2.75-.9-5.5-1.29-8.25s-.87-5.67-1.09-8.52c-.2-2.54,0-5.11-.55-7.63a16.14,16.14,0,0,0,0-1.84,3.73,3.73,0,0,1,1-3l.93.48c0,1,0,2,.06,3.06a5.75,5.75,0,0,0,.43,1.29l0,1.89c0,1.18,0,2.36,0,3.54a5.29,5.29,0,0,0,.43,1.29l0,2.38c.08,1-.31,2,.45,2.89-.19,2.09.4,4.09.69,6.13.54,3.68,1.15,7.35,1.74,11,.35,2.19.71,4.37,1.07,6.56.26,1.56.55,3.12.79,4.68.2,1.25.36,2.5.54,3.76.08,1-.3,2,.45,2.9l0,1.9c0,.85-.05,1.72,0,2.57a5.19,5.19,0,0,0,.42,1.28l0,1.42c0,.86,0,1.73,0,2.58A5.75,5.75,0,0,0,439.19,704.56Z"/><path class="a345ff2f-604d-44c8-afe0-de9a07e4fd71" d="M203,781.34c2.11-.74,4.23-1.45,6.32-2.24,5.82-2.19,11.65-4.42,17.65-6.1a133.09,133.09,0,0,1,16.56-3.73q6.13-.9,12.27-1.9c3.3-.54,6.59-1.16,9.88-1.72,2.36-.4,4.72-.75,7.08-1.13.47-.08.94-.17,1.41-.28s1.05-.3,1.71-.48c-.12-.62-.18-1.16-.33-1.66-2.92-9.55-5.59-19.16-7.86-28.88-.92-4-1.73-7.93-2.33-12-.4-2.75-1-5.49-1.27-8.25-.27-3.5-1.24-6.92-1.1-10.45-.76-2.56-.25-5.24-.82-7.84-.4-1.85-.37-3.8-.61-5.7-.33-2.6-.73-5.2-1.13-7.8s-.84-5.5-1.29-8.25c-.37-2.28-.81-4.55-1.16-6.83-.44-2.91-.72-5.85-1.25-8.75-.47-2.54-.19-5.11-.53-7.62a63.65,63.65,0,0,1-.41-7.16c.51-.63,1.23-.42,1.88-.47,0,1.1.06,2.19.08,3.29a2,2,0,0,0,.45,1.52l0,1.42c0,1.34,0,2.68,0,4a4.93,4.93,0,0,0,.42,1.3c0,.63,0,1.26,0,1.89.08,1-.29,2,.46,2.91-.23,2,.38,3.94.63,5.9.36,2.82.86,5.63,1.32,8.44.37,2.26.79,4.52,1.16,6.78.27,1.64.4,3.31.77,4.92.45,2,.25,4.12.94,6.09a21,21,0,0,0,0,2.1,6,6,0,0,0,.43,1.28c0,.48,0,1,0,1.42,0,.86,0,1.73,0,2.58a5.75,5.75,0,0,0,.43,1.29c0,.63,0,1.26,0,1.9,0,.85,0,1.71,0,2.57a5.85,5.85,0,0,0,.43,1.28,36.94,36.94,0,0,0,.76,7.34c.22,1.66.44,3.31.68,5q1,7,2.54,13.84c1.65,7.38,3.81,14.63,5.75,22,.83,3.15,1.86,6.26,2.83,9.38a4.81,4.81,0,0,0,.59,1c.25.39.51.78.82,1.24l-1,1.64c-1.5.23-3,.44-4.49.68l-10.59,1.79-7.07,1.21c-2.27.38-4.55.78-6.83,1.14-2.59.41-5.21.69-7.78,1.2-3.29.64-6.54,1.45-9.81,2.19-4,.91-7.87,2.09-11.72,3.38-2.8,1-5.55,2-8.32,3.06-2.09.79-4.17,1.61-6.27,2.37-.95.33-1.87,1-2.92.66a1.18,1.18,0,0,1-.32-1.56,10.26,10.26,0,0,1,.78-1.2Z"/><path class="e13c5da5-30fd-450b-b7cb-0904f8ca9fbd" d="M205.41,482.76a4.84,4.84,0,0,0-1.62.06c-1.5.59-3.06.34-4.59.44l-3.84,0a2.48,2.48,0,0,1-2-1.44c0-1.28,0-2.56,0-3.83.48-.41,1-.78,1.44-1.23a8.33,8.33,0,0,1,4.15-2.19c1.92-.45,3.74-1.3,5.72-1.57a3,3,0,0,0,1-.56,3,3,0,0,0-1-2.59c-.58-.66-1.19-1.28-1.79-1.92l-1.82-1.53a3.23,3.23,0,0,1-1-2.34c0-1.6,0-3.19,0-4.78-.12-2.58,1.58-4,3.43-5.27a30.13,30.13,0,0,1,2.94-1.51c1-.55,2.16-.34,3.25-.46l2.87,0a10,10,0,0,1,5.16,4.59c.51.88,1,1.74,1.57,2.62l0,4.29c-.3.73-.6,1.45-.89,2.17s-.64,1.6-.92,2.41a1.83,1.83,0,0,0,.34,1.87c1.35.6,2.85.23,4.31.29l6.71,0a4.75,4.75,0,0,1,2.32,3.46,4.49,4.49,0,0,1-3.21,5.17c-2.79.64-5.58,1.25-8.38,1.88a1.88,1.88,0,0,1-.47.05c-2-.26-3.78.44-5.61,1-1,.09-2-.3-2.9.46l-.95,0c-1,0-2,0-3.05,0A4.86,4.86,0,0,0,205.41,482.76Zm11.41-22.26c-.71-1.07-1.36-2.18-2.13-3.19a5.08,5.08,0,0,0-4.2-2.41,4.51,4.51,0,0,1-1.4-.27,2.72,2.72,0,0,0-2.29.37c-.55.32-1.07.7-1.61,1a4.48,4.48,0,0,0-2,3.13c-.55,3,0,5.57,2.67,7.38l.6.4a7,7,0,0,1,2.55,3.39,4.53,4.53,0,0,1-.22,4c-.79.23-1.62.51-2.46.72-1.93.5-3.88.92-5.8,1.48a10.82,10.82,0,0,0-2.6,1.16c-1.13.69-1.22,1.28-.71,2.92a8.51,8.51,0,0,0,3.26,0c2.13-.29,4.26-.57,6.4-.74a23,23,0,0,0,4-.43c1.69-.45,3.42-.72,5.15-1,2-.36,4.09-.66,6.13-1a24,24,0,0,0,6.1-1.76,2.37,2.37,0,0,0-.38-2.27,4.6,4.6,0,0,0-2.35-.28c-2.47,0-5-.05-7.43,0a2.87,2.87,0,0,1-3-2.52,3.88,3.88,0,0,1,0-1.66,11,11,0,0,1,.91-3A8.39,8.39,0,0,0,216.82,460.5Z"/><path class="a0d3d0e8-6059-427d-ab1b-9b0c3f375e67" d="M356.15,708.86c-.51.37-.45.92-.48,1.44-.13-.2-.35-.39-.37-.6-.22-2-.26-4-.63-5.93-.48-2.52-.28-5.08-.8-7.6-.39-1.86-.39-3.79-.61-5.69-.24-2.13-.52-4.26-.79-6.39,0-.16-.08-.31-.09-.47-.19-2.3-.34-4.61-.56-6.91-.21-2.13-.49-4.26-.74-6.39s-.57-4-.63-5.93c-.05-1.62-.51-3.12-.68-4.56a3.26,3.26,0,0,0-2.24-.4c.48-.69,1.3-.38,2-.69l.88-1.25a11,11,0,0,0,.34,3.32,5.36,5.36,0,0,1,.13,1.66,8.6,8.6,0,0,0,.35,3.07,1.89,1.89,0,0,1,.11.71c0,3.35.8,6.62,1.07,10,.26,3.16.91,6.29,1.29,9.44.27,2.21.22,4.47.61,6.65.45,2.52.24,5.08.79,7.58a48.16,48.16,0,0,1,.6,5C355.84,706.18,356,707.52,356.15,708.86Z"/><path class="a1c8e173-a527-48e8-b40e-5127b41ac950" d="M182.38,708.87c-.5.36-.43.92-.48,1.44-.12-.2-.34-.39-.36-.6-.22-2-.38-4-.6-5.92-.25-2.29-.54-4.57-.82-6.85,0-.23-.07-.47-.09-.71-.19-2.13-.32-4.27-.56-6.4-.2-1.81-.54-3.61-.79-5.41-.08-.55-.07-1.11-.13-1.67-.1-1-.23-2-.34-3.07a4.38,4.38,0,0,1-.11-.94c.22-2.25-.42-4.43-.55-6.65-.13-2.05-.65-4.07-.8-6.12a41,41,0,0,0-.61-5.2,9.77,9.77,0,0,0-.46-1.35l.95-1.45a11,11,0,0,0,.36,3.32,5.66,5.66,0,0,1,.12,1.66,8.88,8.88,0,0,0,.35,3.07,2.73,2.73,0,0,1,.12,1,47.86,47.86,0,0,0,.86,6.85c.28,1.81.4,3.64.61,5.45.26,2.13.54,4.25.81,6.38.07.55.09,1.11.15,1.67.1.86.22,1.73.31,2.6.07.71.1,1.43.17,2.14.09.87.19,1.74.3,2.6a6.28,6.28,0,0,1,.14.94c-.05,3.52.9,6.94,1,10.44A27.14,27.14,0,0,0,182.38,708.87Z"/><path class="ab613986-171b-4f14-9108-4e18c6ac744b" d="M410.93,646c5-1.21,9.95-2.4,14.91-3.65a2.68,2.68,0,0,1,2.25.31l-.44,1.39c-4,1-8,2-12,3-1.46.37-2.88.86-4.32,1.3C410.63,647.67,411,646.8,410.93,646Z"/><path class="b5bda0be-7ad8-4af7-9d0e-52b8b6253433" d="M407.07,470.3c2.39-.55,4.79-1.1,7.18-1.67,1.93-.46,3.85-1,5.77-1.44a4.59,4.59,0,0,1,3,0,.84.84,0,0,1-.36,1.37,11.86,11.86,0,0,1-2.25.74c-4.47,1.15-8.94,2.27-13.4,3.4C406.19,471.9,406.6,471.1,407.07,470.3Z"/><path class="ab613986-171b-4f14-9108-4e18c6ac744b" d="M254.33,643.11c-.54,1.26-1.67,1.62-2.86,1.9L241,647.51a19.92,19.92,0,0,1-3.42.74c-.86-1.08-.1-1.66.52-2.28,2.4-.55,4.81-1.1,7.21-1.67,1.94-.47,3.87-.95,5.8-1.46A3.85,3.85,0,0,1,254.33,643.11Z"/><path class="ad8ae340-c419-4aec-b9f5-a162bc640a56" d="M271.32,34.08a32.32,32.32,0,0,1,7,.56c1.54.79,3.1,1.56,4.62,2.39a8.27,8.27,0,0,1,3.24,3,26.49,26.49,0,0,0,2.74,3.53c1.16,1.31,1.7,3,2.79,4.34a13,13,0,0,1,1.62,4.89,27,27,0,0,1-.3,8c-.54,1.6-1.3,3.13-1.7,4.78-.53,1.13-1,2.26-1.57,3.38-.57.52-.37,1.19-.38,1.82a5.76,5.76,0,0,0-.21,3.71c.05.34.44.62.68.93l.35.39c.42.49,1,.42,1.54.41,3.49-.07,7,0,10.47-.28,3.87-.32,7.77-.19,11.66-.23a7.63,7.63,0,0,1,1.41.21,11.07,11.07,0,0,0,1,.59A4.58,4.58,0,0,1,318.6,79a13.32,13.32,0,0,0,.9,1.6,15.85,15.85,0,0,1,.65,5.3c0,.93,0,1.86,0,2.8-.37.7-.76,1.39-1.09,2.11a5.82,5.82,0,0,1-3.52,3.38c-1.37.44-2.73.92-4.12,1.29s-3.16.45-4.6,1.21c-4.31.3-8.39,1.94-12.75,2.1a57.83,57.83,0,0,0-7.58,1.15,7.25,7.25,0,0,0-1.83.53,23.3,23.3,0,0,1-7,1.63c-2.22.28-4.44.61-6.66.86-1.75.2-3.5.33-5.26.46-3.27.24-6.54.42-9.81.69-1.43.11-2.84.44-4.28.54-3.26.21-6.54.36-9.81.49A8.36,8.36,0,0,1,237,104a7.27,7.27,0,0,0-1.55-.53,7.39,7.39,0,0,1-1.8-5.16c-.59-.61-1.15-.37-1.68-.29-4.19.65-8.37,1.33-12.56,2-3.64.56-7.29,1-10.91,1.64-2.84.47-5.65,1.12-8.48,1.65-2.59.48-5.19.92-7.79,1.38-.62.11-1.24.25-2,.41,0,.67-.05,1.3,0,1.91.76,7.4,1.49,14.8,2.34,22.19.58,5.09,1.35,10.15,2,15.22q.88,6.9,1.71,13.81c.57,4.76,1.13,9.53,1.65,14.3.45,4.13.82,8.28,1.26,12.41.88,8.19,1.73,16.38,2.68,24.56,1.2,10.5,3.33,20.85,5.12,31.25q3.44,19.86,8,39.48c3.32,14.09,6.59,28.19,10.56,42.12,1.9,6.69,4.06,13.3,6.08,20,2.46,8.11,4.87,16.24,7.33,24.35,1.16,3.82,2.39,7.63,3.58,11.44.14.46.23.93.35,1.39a13.43,13.43,0,0,1-.26,5.1c-.46.23-.82.39-1.16.58s-.64.51-1.22.19c-.29-2.06-1.75-3.55-3.12-5.16.24-2-1.15-3.8-.78-5.84-.6-1.63-.66-3.48-2.17-4.77v-4L232,362.58a3.72,3.72,0,0,0-.07-4.53l-1.79-.89a6.59,6.59,0,0,1-.37-1,23.44,23.44,0,0,0-1.36-4.56,5.69,5.69,0,0,1-.21-3.53c.12-.53.19-1.07.29-1.65l-2.18-1.53-.65-2.13a4,4,0,0,0,.09-3c-.55-1.57-.95-3.19-1.43-4.84l-1.25-.75c-.43-1.35-.81-2.56-1.2-3.82.07-1,1.15-1.92.71-3.31-.54-1-1.94-1.73-2.15-3.51a5,5,0,0,0,.12-3.47l-1.94-1.83a3.17,3.17,0,0,1-.3-2.47,3.59,3.59,0,0,0-.42-3,6.37,6.37,0,0,1-.91-3.9,9.67,9.67,0,0,0-.09-1.42l-1.17-1.53.12-1.35a3.41,3.41,0,0,1-1.5-2.33c.11-1.49.2-2.59.28-3.73-1.88-1.15-2-3.05-2.38-4.73l1.2-2.23a8.82,8.82,0,0,0-.82-1.75,8.5,8.5,0,0,1-1.39-5c0-.79,0-1.59-.07-2.31l-2-2.89c.11-1.37.22-2.79.33-4.22l-.87-2.06c-1.89-.74-1.88-2.27-1.37-3.79l-.48-1,.57-2.56c-.81-1.62-.79-3.6-2.08-4.88,0-2.09.43-4.06.1-6l-2.26-2.87.29-1.87c-.15-.36-.31-.71-.43-1,.33-.54.61-1,.81-1.36a14.37,14.37,0,0,1-.66-2.69c0-.93-1.17-1.34-1.06-2,.17-1-.8-1.54-.81-2.32a6.84,6.84,0,0,0,.79-1.82,7,7,0,0,0-.45-4.22,10,10,0,0,1-.74-2,7.43,7.43,0,0,0-1-2.63c-.46-.66,0-1.72-.66-2.43,0,0,0-.15,0-.05l1-1.85-1.66-1.27c1.42-1.38.13-2.87.42-4.3l-1.67-1.26c.52-.83,1-1.54,1.49-2.36-.64-1.48-.09-3.3-1.28-4.6a5.44,5.44,0,0,0,0-3.53l-.85-.7a6.83,6.83,0,0,0-.34-1.58,7.82,7.82,0,0,0-1-1.38l1-2.47-1.5-1.7,1.37-1.59a4.47,4.47,0,0,0-.67-3.79l.24-2.08-1.91-1.43c.14-1.17.28-2.27.42-3.46-.46-.81-1.18-1.66-.63-2.93a4.71,4.71,0,0,0,.59-.56,8,8,0,0,0,.54-.81c-.07-1.32-1.28-1.56-1.7-2.35a3.9,3.9,0,0,1-.06-.53c0-.93,1.17-1.07,1.37-1.93l-.13-2.15L192.5,176a2.84,2.84,0,0,0,.77-2.89L192.22,172a2.2,2.2,0,0,0,.94-3.09l-1.5-1c0-.31,0-.53.06-.61a2.24,2.24,0,0,0,.55-2.64c-.43-.91.19-1.72.1-2.85l-1.68-2.26c1.14-2.32,1.14-2.32-.58-4.44a10.74,10.74,0,0,0,.89-1,7.46,7.46,0,0,0,.54-1.06l-2-1.59c1.35-2.1,1.14-4.29.83-6.46l-1.44-1.22.6-1.8-1.29-1.06c0-.32-.05-.51,0-.63.18-.35.43-.67.6-1a3.22,3.22,0,0,0,.17-.71,8.89,8.89,0,0,1-.7-.66,11.5,11.5,0,0,1-.65-1l1.22-2.3c.05-2.75-1.28-4.89-1.33-7.24l-1.3-1.43.06-1.18,1.29-1.57c-.07-1.35-1.25-1.62-1.76-2.49V119l.54-.58c1.15-1.28,1.07-1.92-.33-2.82-.25-.16-.48-.35-.76-.55.48-.85,1-1.57,1.31-2.35.41-.94-.5-1.61-.65-2.15.09-1,.16-1.68.22-2.4l-1.93-1.3,1.29-1.62c.24-1.63.45-3.12.67-4.61a4.16,4.16,0,0,1,2.7-.65,35.92,35.92,0,0,0,7.74-.85,19.77,19.77,0,0,0,5-1.24l0,0,3.53-.55q12.28-1.93,24.57-3.85c1.73-.28,3.48-.49,5.21-.77.44-.07,1-.07,1.15-.66l1.52-1.48c1.15-.19,1.78-1.11,2.55-1.83A20.79,20.79,0,0,1,245.22,86l1.49-.66a12.18,12.18,0,0,0,4.41-1c.45-.1.92-.15,1.36-.29a44.78,44.78,0,0,1,6.11-1.74c.22,0,.4-.24.6-.36a14.46,14.46,0,0,0,4.08-.66,2.91,2.91,0,0,0-.19-2.32l0,0a6,6,0,0,0-2-3.78l-.49-.52a5.61,5.61,0,0,0-2.47-3.07,2.66,2.66,0,0,0-.88-.25l-1.43-1A55.5,55.5,0,0,0,251.6,66l0,0a2.82,2.82,0,0,0-.28-.64A9.11,9.11,0,0,1,249.43,59c.13-3.23.15-6.47.22-9.7a4.51,4.51,0,0,1,.53-2.5,11.6,11.6,0,0,1,2.3-3.81,4.29,4.29,0,0,0,1.86-1.84,26,26,0,0,1,4.87-3.44A11.06,11.06,0,0,0,263,35.88h0a13.47,13.47,0,0,1,6.58-1.28,2.61,2.61,0,0,0,.93-.06,3.23,3.23,0,0,0,.76-.48ZM242.41,94.35c-.39,1.4-.74,2.53-1,3.69a2.93,2.93,0,0,0,.1,1,4.41,4.41,0,0,0,2.7.48c3.26-.22,6.54-.39,9.79-.76a124.85,124.85,0,0,1,12.66-1,22.54,22.54,0,0,0,6.15-.85,18.53,18.53,0,0,1,3.05-.62,107.49,107.49,0,0,0,10.81-2.12A55.33,55.33,0,0,1,293,93a55.37,55.37,0,0,0,8.5-1.38,8.91,8.91,0,0,1,2.83-.42,6.92,6.92,0,0,0,4.3-1.17,5.14,5.14,0,0,1,2.69-.86,3.93,3.93,0,0,0,2.85-1,10,10,0,0,0-.21-3.82,2.56,2.56,0,0,0-2.09-2.06,4.89,4.89,0,0,0-1.43-.12c-4,.13-8,.31-12,.43-3.2.09-6.39.12-9.59.19a3.72,3.72,0,0,1-3.12-1.5c-.35-.43-.76-.83-1.07-1.29a7.27,7.27,0,0,1-1.51-3.73,14.17,14.17,0,0,1,.6-5.68c.82-2.25,1.72-4.47,2.65-6.67A10.79,10.79,0,0,0,287.55,60c0-1.52,0-3,0-4.56a7.86,7.86,0,0,0-1-3.41c-1.54-2.82-3.71-5.2-5.55-7.81a3.62,3.62,0,0,0-1.1-.91c-.74-.47-1.51-.9-2.29-1.31a9.11,9.11,0,0,0-5.05-1.25,7,7,0,0,1-2.35-.27,7.67,7.67,0,0,0-5.79.63,28.88,28.88,0,0,0-4.87,3.47,8.78,8.78,0,0,0-3.18,6.72c-.05,2.56,0,5.12-.05,7.68a5,5,0,0,0,.94,2.92,16.45,16.45,0,0,0,5,5.12,18.77,18.77,0,0,1,5.74,5.69A13.16,13.16,0,0,1,270.3,82a3.94,3.94,0,0,1-2.5,3.49,25.51,25.51,0,0,1-5.05,1.44,59.55,59.55,0,0,0-6.54,1.47c-2.59.85-5.21,1.53-7.83,2.23a9.33,9.33,0,0,0-2.43,1A18.82,18.82,0,0,0,242.41,94.35Z"/><path class="ad8ae340-c419-4aec-b9f5-a162bc640a56" d="M367.62,69.09a3.13,3.13,0,0,1,1.06,2.54c0,.32,0,.64,0,1-.2,3.92.43,7.79.68,11.67.21,3.1.43,6.2.59,9.3.27,5.33.9,10.62,1.63,15.91a4.2,4.2,0,0,0,.31.88v0c.06.87.06,1.74.2,2.59.58,3.67,1.2,7.34,1.82,11a9,9,0,0,0,.43,1.33l0,0a5.36,5.36,0,0,0,.51,2.92l0,0a5.35,5.35,0,0,0,.5,2.92l0,0a4.21,4.21,0,0,0,0,.71q1.1,7.14,2.21,14.3c0,.14.16.26.24.39h0c.24,1.9.4,3.82.73,5.7,1.58,9.06,2.94,18.16,4,27.29.66,5.72,1.14,11.46,1.64,17.19.75,8.6,1.39,17.22,2.68,25.76.26,1.74.42,3.5.66,5.24a10.9,10.9,0,0,0,.36,1.36v0c.05.87,0,1.74.16,2.6q.81,5.75,1.68,11.5c.14.92.4,1.83.6,2.74l0,0a5.17,5.17,0,0,0,.51,2.92l0,0c.08.86.1,1.74.26,2.59q1.38,7.23,2.82,14.44c.18.91.52,1.8.79,2.7l0,0a28.28,28.28,0,0,0,1.47,6.86l.28,1.81c.09.39.15.79.26,1.17q.92,3.35,1.85,6.67a9,9,0,0,0,.81,3.68c.59,2.36,1.17,4.72,1.79,7.07.2.75.5,1.47.76,2.21a2.36,2.36,0,0,0,.32,1.76,10.85,10.85,0,0,0,1.12,3.38l0,0a7.5,7.5,0,0,0,1,3.4l0,0a18.91,18.91,0,0,0,1.46,5.43,2.42,2.42,0,0,0,.33,1.8c.37,1.18.73,2.35,1.1,3.52a2.37,2.37,0,0,0,.33,1.76c.38,1.15.75,2.3,1.12,3.46l.29,1.34a38.4,38.4,0,0,0,2.11,6.26l0-.05a16.26,16.26,0,0,0,1.47,4.92c.1.45.19.9.28,1.35.39,1.15.78,2.31,1.16,3.46.09.45.19.89.28,1.34.39,1.13.77,2.25,1.16,3.37l0,0a3.46,3.46,0,0,0,.46,1,13,13,0,0,0,1.45,1.12,8.43,8.43,0,0,1-.08,4l-1.27,1.46c-.76.19-1.52.41-2.29.54-1.5.25-3,.42-4.5.68-5,.88-10.06,1.83-15.1,2.68-7.32,1.24-14.66,2.43-22,3.62l-22.47,3.6c-5.52.88-11.06,1.67-16.57,2.63-7.08,1.22-14.08,2.88-21.06,4.57a270.36,270.36,0,0,0-31.24,9.22c-12.12,4.52-24.42,8.56-36.34,13.51a2.62,2.62,0,0,1-2.22-1.4c-.16-1.12-.5-2.29.15-3.49a8,8,0,0,1,3.31-2.19c1.33-.54,2.62-1.15,3.93-1.72.61-.18,1.23-.33,1.82-.54,11-4,21.9-8.07,32.91-12,9.35-3.3,19-5.79,28.58-8.15q14.81-3.62,29.87-5.91c12.32-1.88,24.62-3.94,36.93-5.93,6.31-1,12.63-2,18.93-3.09,3.63-.61,7.24-1.32,10.85-2a3.12,3.12,0,0,0,.62-.26,2.23,2.23,0,0,0-.13-1.88c-1.69-5.59-3.44-11.15-5.08-16.75-1.56-5.37-3-10.79-4.51-16.17Q395.67,296,392,280.47c-2.87-12.14-5.35-24.36-7.1-36.71-1.23-8.79-2.46-17.57-3.61-26.37-.48-3.65-.8-7.31-1.09-11-1.09-13.71-2.33-27.4-4.44-41-1.27-8.14-2.63-16.26-3.94-24.39q-2.1-13-4.2-26a5.89,5.89,0,0,0-.29-.9c-.11-1.11-.16-2.23-.33-3.33-.78-5.29-1.27-10.62-1.66-16-.44-6-.89-12.1-1.31-18.15a15.07,15.07,0,0,1,.38-6.1c1.6-1.63,1.6-1.63,3.27-1.48Z"/><path class="ad8ae340-c419-4aec-b9f5-a162bc640a56" d="M293.13,279.63a3.91,3.91,0,0,1-2.84,2.55c-3.67,2-7.68,2-11.69,1.93-1,0-1-.05-2.61-1-.17-.61-.35-1.38-.59-2.13a2.81,2.81,0,0,1,.83-3.06,37,37,0,0,1,3.79-3.3,174.73,174.73,0,0,0,14.44-11.12,9,9,0,0,1,1.55-1.12,3.7,3.7,0,0,1,5.16,1.45,12,12,0,0,1,.74,1.77,57.39,57.39,0,0,1,2.38,10c.19,1,.36,2.05.6,3.06.14.6.39,1.18.67,2a6.47,6.47,0,0,0,.92-.95q1.59-2.7,3.1-5.41a15.33,15.33,0,0,1,2.49-3.51,4.17,4.17,0,0,1,3.68-1.34,26.76,26.76,0,0,1,3.95,1,12,12,0,0,0,4.47.71,6.21,6.21,0,0,0,1.13-.28,13.47,13.47,0,0,0-.53-3.13c-.35-2.59.09-4.92,2.11-6.79a4,4,0,0,1,3.05-1.16c4.31.19,8.18,1.39,11,4.91.09.12.26.17.53.35l1.73-1.45a5.24,5.24,0,0,1,6.64-.54c.82.49,1.56,1.12,2.34,1.68a4.28,4.28,0,0,0,2,1.08c.84-.44,1.07-1.25,1.46-1.92a18,18,0,0,1,3.21-4.16,7.69,7.69,0,0,1,4.2-2.15c1.26-.2,2.53-.38,3.8-.55a3.05,3.05,0,0,1,2.41.57,8.65,8.65,0,0,1,.53,1.16,3.69,3.69,0,0,1-2.86,4.88,15.3,15.3,0,0,1-1.91.22,5.63,5.63,0,0,0-5,3.24,22.81,22.81,0,0,1-1.75,2.86,10.77,10.77,0,0,1-1.23,1.47,2.94,2.94,0,0,1-3.28.84,13.26,13.26,0,0,1-4-2c-.7-.54-1.4-1.06-1.92-1.45a2.19,2.19,0,0,0-2.23.49,22.67,22.67,0,0,0-3.93,3.84,3.08,3.08,0,0,1-2.55,1.55,3.84,3.84,0,0,0-1.34.47,8.77,8.77,0,0,1-6.54.41c-.3-.1-.61-.15-1-.24l-1.57,1.05a7.91,7.91,0,0,1-5.48,1.29,24.31,24.31,0,0,1-4.88-1.19c-1-.36-2.09-.87-3.31-.36a9.24,9.24,0,0,0-1.63,2.56c-1.21,2-2.4,3.95-3.64,5.91a9.61,9.61,0,0,1-1.21,1.49,3.76,3.76,0,0,1-6.14-.44,11.3,11.3,0,0,1-1.45-3.27c-.58-2.07-1-4.19-1.46-6.3-.35-1.64-.6-3.3-.94-4.94-.16-.77-.42-1.52-.63-2.24-.32,0-.53,0-.63.07-2.48,2-5,4-7.38,6-.12.61.33.55.58.59a2.78,2.78,0,0,1,2.43,2.58C293.06,278.66,293.09,279.21,293.13,279.63Zm36.39-12a7.82,7.82,0,0,0,.84-.79.51.51,0,0,0-.1-.83C329.56,266.13,329.26,266.52,329.52,267.63Z"/><path class="ad8ae340-c419-4aec-b9f5-a162bc640a56" d="M317.42,120.1l1.89-2.24a5.36,5.36,0,0,1,6.46-1.63l1.1.47a3.76,3.76,0,0,0,4.06-.48l4.3-3.46c.68-.55,1.31-1.18,2-1.68a5.69,5.69,0,0,1,1.71-.8,2.34,2.34,0,0,1,2.62.69c.31.36.64.71,1,1a4.34,4.34,0,0,1-1.51,4.34c-1.75,1.52-3.52,3-5.34,4.45-3,2.38-6.31,3-9.87,1.28a5.44,5.44,0,0,0-.68-.23,1.89,1.89,0,0,0-.42,0c-.31.28-.73.62-1.1,1s-.91,1.12-1.42,1.62a4.74,4.74,0,0,1-6.52.44c-1.14-.86-2.19-1.84-3.31-2.8a5.32,5.32,0,0,0-1.76,1.57,36.5,36.5,0,0,1-2.68,2.74,9.64,9.64,0,0,1-2.82,1.75,5.74,5.74,0,0,1-5.89-.79c-.55-.44-1.14-.83-1.85-1.34-.45,1.21-.84,2.25-1.23,3.28a3.47,3.47,0,0,1-2.06,2.19,3.6,3.6,0,0,1-3.63-.51c-1-.77-1.94-1.62-2.9-2.43-.7.21-.67.86-.91,1.33a28.8,28.8,0,0,1-1.48,3,3.84,3.84,0,0,1-5.65,1,13.18,13.18,0,0,1-4-4.72,5.39,5.39,0,0,0-1.35-2.07c-.25.51-.48.91-.66,1.34-.81,1.91-1.58,3.84-2.42,5.74a16.62,16.62,0,0,1-1.31,2.28,3.75,3.75,0,0,1-2.1,1.52,3.38,3.38,0,0,1-3.18-.49,8.3,8.3,0,0,1-3-3.92c-.18-.49-.38-1-.7-1.77-.81,1.64-.59,3.13-1,4.49a11.49,11.49,0,0,1,.87,1.71,2.86,2.86,0,0,1-.39,2.53,8.33,8.33,0,0,0-1.35,3.79,11.59,11.59,0,0,1-.37,1.22c-.5.21-1,.44-1.51.61a1.43,1.43,0,0,1-.71,0,4.15,4.15,0,0,1-2.76-3.54c.11-2,.36-4,.58-6,.69-6.2,2-12.29,3.34-18.39.26-1.25.49-2.51.77-3.76.15-.7.35-1.38.51-2,1.95-.94,2.23-.88,3.54.22a5,5,0,0,1,2,3.67c.16,2.31.43,4.62.71,6.92.21,1.74.5,3.48.78,5.22.06.35.2.7.41,1.42.5-1,.88-1.73,1.17-2.45.79-1.92,1.53-3.87,2.3-5.79a6.85,6.85,0,0,1,2.14-3.25l1.06-.27a2.25,2.25,0,0,1,2.23.54,10.31,10.31,0,0,1,2.95,3.72c.4,1.05.89,2.06,1.36,3.07.34.72.71,1.42,1.16,2.33a4.73,4.73,0,0,0,.75-1c.63-1.64,1.19-3.31,1.81-5,.36-1,.79-1.9,1.17-2.82a13.11,13.11,0,0,1,1.25-.42,7.73,7.73,0,0,1,1.08-.12c2.48,1.25,3.46,3.55,4.61,6a12.38,12.38,0,0,0,1.45-3.7,7.38,7.38,0,0,1,1.53-3.3,5.25,5.25,0,0,1,.82-.27c.39-.09.78-.12,1.11-.17,1.36.47,2.1,1.56,3,2.45s1.07,2.34,2.39,3.08a4.06,4.06,0,0,0,1.23-.49c.92-.76,1.79-1.59,2.64-2.43s1.49-1.68,2.32-2.42a6.76,6.76,0,0,1,2-1.26,4.06,4.06,0,0,1,4.79,1.14C315.34,118.15,316.29,119,317.42,120.1Z"/><path class="ad8ae340-c419-4aec-b9f5-a162bc640a56" d="M283.43,239c2.94,1.82,4.89,1.65,7.05-.53a28,28,0,0,0,1.84-2.21c.84-1.07,1.6-2.21,2.5-3.22,2.15-2.43,4.43-2.94,7.8-1.57a20.7,20.7,0,0,1,2.27,1.33c.91.51,1.82,1,2.75,1.46a2.91,2.91,0,0,0,3.69-.79,33.66,33.66,0,0,0,2.19-2.85c.73-1.05,1.37-2.16,2.08-3.22a10.14,10.14,0,0,1,1-1.31,3.25,3.25,0,0,1,5.42.48c.17.25.37.48.59.76a6.89,6.89,0,0,0,.86-4.38c-.06-.39-.2-.77-.28-1.16a2.32,2.32,0,0,1,.63-2.21l1.56-1.58c.42-.07.66-.14.89-.15,1.84,0,2.58.34,3,2.3a7.56,7.56,0,0,0,2.62,3.94,4.6,4.6,0,0,0,6.33.25,12.34,12.34,0,0,0,1.41-1.3c.67-.69,1.34-1.38,1.95-2.12,2.67-3.22,6.07-3.88,10-2.87.62.15,1.23.35,1.88.54,1.22-.59,2.48-1.17,3.89-.27a2.7,2.7,0,0,1-.6,3.62.85.85,0,0,0-.16.17c-1.39,2-3.31,2.35-5.53,1.84-.77-.18-1.56-.36-2.32-.6a3.37,3.37,0,0,0-3.89,1c-.69.78-1.42,1.52-2.14,2.28l-.5.51c-3.74,4-8.15,4.71-13.13,2.69-.28-.11-.58-.21-.79-.28-1,1.15-1.94,2.25-2.9,3.3a3.89,3.89,0,0,1-3.94,1.18c-1.08-.25-2.11-.68-3.41-1.12-.38,0-.55.65-.92,1.05-1.07,1.18-2.1,2.4-3.22,3.55a7.8,7.8,0,0,1-7.19,2.43,14.41,14.41,0,0,1-5.6-2,9.94,9.94,0,0,0-2.73-1.52c-.32.34-.6.62-.85.91l-4.2,4.93a11.23,11.23,0,0,1-.86.83,9.77,9.77,0,0,1-8.9,2.43c-.86-.16-1.71-.37-2.66-.57a3,3,0,0,1-4,.87c-1.09-1.15-.87-2.49-.09-3.89l-.94-1.68a22.63,22.63,0,0,1-3-13.6c.09-.87.14-1.75.23-2.63a8.1,8.1,0,0,1,2.23-4.68,4.44,4.44,0,0,1,6.89.33,10.45,10.45,0,0,1,1.39,3,15,15,0,0,1,.63,5.21c-.11,2.64-.31,5.27-.5,7.9C283.71,236.82,283.56,237.84,283.43,239Z"/><path class="ad8ae340-c419-4aec-b9f5-a162bc640a56" d="M312.69,185c-.57.61-1.1,1.19-1.65,1.76-1.05,1.09-2.05,2.25-3.18,3.26a8.64,8.64,0,0,1-10.22,1.14c-.57-.3-1.09-.67-1.64-1s-1-.52-1.36-.72a3.31,3.31,0,0,0-2.24,1.06,6.1,6.1,0,0,1-4.46,1.35,5.23,5.23,0,0,1-3.69-1.47c-.22-.22-.46-.43-.77-.72-.63.52-1.22,1-1.84,1.51a4.63,4.63,0,0,1-6.3-.19l-.43-.3c-.62.16-.69.78-.92,1.23a48.45,48.45,0,0,1-4.21,7,13.61,13.61,0,0,1-1.75,2,3.87,3.87,0,0,1-1.64.91,2.71,2.71,0,0,1-2.52-.49,2.44,2.44,0,0,1,.43-3.24,23.29,23.29,0,0,0,4.35-6.86c2.15-4.72,4.22-9.49,6.28-14.26a12.92,12.92,0,0,0,.63-2.31,68.21,68.21,0,0,1,2.81-9.91,16.17,16.17,0,0,1,2.53-4.32,2.84,2.84,0,0,1,3.14-1.19l.67.17a2.65,2.65,0,0,1,.93,2.82,22.77,22.77,0,0,1-.83,3.25c-.84,2.5-1.63,5-2.66,7.45a25.27,25.27,0,0,0-1.76,8.16c-.1,1.26,0,2.54,0,4a4.21,4.21,0,0,0,.78-.55c.6-.75,1.2-1.5,1.75-2.29a2.76,2.76,0,0,1,3.69-1.1,4.21,4.21,0,0,1,1.28,2.33,8.41,8.41,0,0,0,.54,1.58,7.41,7.41,0,0,0,1,1.13,4.47,4.47,0,0,0,2.24-1.19,7.13,7.13,0,0,1,7.72-.25c.71.36,1.34.86,2,1.26,1.85,1.05,2.8,1,4.3-.48,1.14-1.12,2.17-2.34,3.26-3.51a18.37,18.37,0,0,1,1.49-1.56,5.42,5.42,0,0,1,6.67-.42c.75.47,1.48.95,2.23,1.41a4.59,4.59,0,0,0,.82.27,7.84,7.84,0,0,0,1.31-.82c.86-.83,1.67-1.72,2.48-2.6s1.46-1.71,2.24-2.5a5.08,5.08,0,0,1,7.13-.65,5.23,5.23,0,0,0,2.65,1.42c.54-.53,1.17-1.13,1.77-1.75s1.28-1.44,2-2.1a8.94,8.94,0,0,1,4.62-2.38c1.41-.27,2.8-.68,4.21-.91a13.12,13.12,0,0,1,2.25,0,2.3,2.3,0,0,1,1,2.36,17.23,17.23,0,0,1-1,1.66,4.33,4.33,0,0,1-2.54,1.7c-.94.2-1.88.39-2.83.53a6.25,6.25,0,0,0-4.08,2.27,21.7,21.7,0,0,1-2.86,2.89,6.63,6.63,0,0,1-7.6.52c-.61-.36-1.19-.8-1.78-1.2-1,.3-1.37,1.13-1.94,1.77a30.49,30.49,0,0,1-3.89,3.9,6.07,6.07,0,0,1-4,1.42,8.39,8.39,0,0,1-5.41-1.56A8,8,0,0,0,312.69,185Z"/><path class="ad8ae340-c419-4aec-b9f5-a162bc640a56" d="M297.42,313.36a5.15,5.15,0,0,1,2.68-1.48,4.63,4.63,0,0,1,2.54,2.38c.78,1.4,1.45,2.86,2.3,4.22,1.13,1.82,2.34,3.62,3.62,5.35a7.44,7.44,0,0,0,4.14,2.72,3.36,3.36,0,0,0,3.72-.93c1.12-1.24,2.26-2.48,3.34-3.76s1.88-2.39,2.84-3.57a14.37,14.37,0,0,1,3.38-3,6.45,6.45,0,0,1,7.44-.12c.82.5,1.62,1,2.45,1.51a14.19,14.19,0,0,0,1.39.59c.23-1.94-.6-3.81.47-5.7a4.13,4.13,0,0,1,2.35-1.23,3.92,3.92,0,0,1,2.21,1.71c.8,1,1.57,2,2.39,3a5.77,5.77,0,0,0,3,2.06,6.84,6.84,0,0,0,.77-1.13c.62-1.48,1.21-3,1.75-4.47a7.2,7.2,0,0,1,3.56-4,5.2,5.2,0,0,1,5.05-.23c1.57.81,3.05,1.76,4.57,2.64a5.13,5.13,0,0,0,3,1.12c.32-.4.67-.82,1-1.27,1-1.44,2-2.91,3-4.35a7.51,7.51,0,0,1,3.54-2.87,1.83,1.83,0,0,1,1.47,2.09,8.47,8.47,0,0,1-1.26,4.56c-1.31,2-2.67,4-4,6a6.08,6.08,0,0,1-.94,1.08,4.49,4.49,0,0,1-5.08,1.06,36.36,36.36,0,0,1-3.4-1.75c-1-.55-1.91-1.17-2.87-1.74a3.06,3.06,0,0,0-2.51-.43,5,5,0,0,0-1.38,2.49c-.55,1.33-1,2.68-1.62,4a9.87,9.87,0,0,1-1.23,2.05,4.28,4.28,0,0,1-5.14,1.44,34.57,34.57,0,0,1-3.45-1.8c-.12.1-.39.23-.44.41a3.78,3.78,0,0,1-3.11,2.79,7,7,0,0,1-3.31-1c-1.13-.6-2.21-1.29-3.31-1.93a16.22,16.22,0,0,0-1.66-1,2.89,2.89,0,0,0-3.69.74c-.76.81-1.43,1.71-2.15,2.57-1.49,1.77-2.95,3.58-4.5,5.3a13.36,13.36,0,0,1-4,3,6.88,6.88,0,0,1-5.35.35,12.26,12.26,0,0,1-4.87-3,27.23,27.23,0,0,1-4-5l-1-1.55c-.65.09-.57.58-.62.9-.28,2.14-.51,4.29-.78,6.43-.17,1.35-.35,2.7-.57,4a3.38,3.38,0,0,1-2.94,3.2,3,3,0,0,1-2.48-2.42,10.19,10.19,0,0,1-.34-2.12c-.11-2.08-.2-4.15-.22-6.23a7.69,7.69,0,0,1,.84-3.81l1.86-1.43C296.43,319,296.07,316,297.42,313.36Z"/><path class="ad8ae340-c419-4aec-b9f5-a162bc640a56" d="M240.45,120.3c-2.95,7.85-6.7,15.33-10.25,22.91a7.59,7.59,0,0,0-1.13,3.36c2.16.5,9.89-.43,12.49-1.53a6.42,6.42,0,0,0,.1-3.26c-.18-1.18-.42-2.36-.63-3.54a52.34,52.34,0,0,1-.73-8.1c0-2,0-2.16,2.1-3.3a2.68,2.68,0,0,1,2.18,1.33c.62,4.54,1.33,9.12,1.83,13.72a39,39,0,0,1-.12,5.5,3.55,3.55,0,0,1-1.43,2.65,7.15,7.15,0,0,1-3.35,1.76c-1.88.33-3.75.8-5.65,1q-8.21,1-16.43,1.84a44.08,44.08,0,0,1-5.75.13,3.33,3.33,0,0,1-3.47-3,30.79,30.79,0,0,1-.44-3.57c-.09-1.27-.12-2.56-.1-3.83a74.09,74.09,0,0,0-.56-10.53,43,43,0,0,1-.2-4.54c0-1.61.39-3,2-3.76a1.46,1.46,0,0,0,.59-.41c1-1.43,2.59-1.77,4.18-2,1.17-.2,2.38-.28,3.55-.48,2.13-.38,4.24-.83,6.36-1.22,1.65-.3,1.71-.28,3.49.69.14.45.34,1,.46,1.5a3.21,3.21,0,0,1-2.28,4.09,9.77,9.77,0,0,1-1.4.32c-2.76.47-5.51.95-8.27,1.38a23,23,0,0,0-3.64.88,3.38,3.38,0,0,0-.24,2.43,75.78,75.78,0,0,1,.69,12.68,6,6,0,0,0,.32,2.7,23.63,23.63,0,0,0,8.32-.44,5.08,5.08,0,0,0-.37-4c-.59-1-1.11-2.12-1.65-3.17a7.07,7.07,0,0,1-1.77-1.21,8.45,8.45,0,0,1-1.11-2.37,3.27,3.27,0,0,1,1.25-3.6,2.68,2.68,0,0,1,3.27.62,14.61,14.61,0,0,1,1.44,2.2c.49.83.93,1.68,1.4,2.51.07.14.23.22.35.34.8-.13.86-.88,1.1-1.41q3.47-7.51,6.85-15a11.37,11.37,0,0,1,2.84-4.1c.51-.13,1-.3,1.55-.39a1.79,1.79,0,0,1,2.13,1.33A3.77,3.77,0,0,1,240.45,120.3Z"/><path class="ad8ae340-c419-4aec-b9f5-a162bc640a56" d="M245.31,229.92c-3.4,1.38-6.78,2.82-10.2,4.14a9.15,9.15,0,0,1-6.36.26,7.61,7.61,0,0,0-.06,3.55c.56,3.71,1.13,7.42,1.75,11.13s1.27,7.24,1.92,10.86a8.43,8.43,0,0,0,.25.92,3.35,3.35,0,0,0,2.59-.17c3.3-1,6.6-1.91,9.89-2.92,3.9-1.19,7.79-2.42,11.68-3.65.45-.14.89-.31,1.32-.46a6.32,6.32,0,0,0,.51-2.86,46.15,46.15,0,0,0-.55-9.32c-.11-.71-.17-1.43-.27-2.14a3.84,3.84,0,0,1,.59-2.51c1-1.82,1.34-2,3.72-1.65a3.67,3.67,0,0,1,1.38,2.68,59.84,59.84,0,0,1,.5,15.53,9.54,9.54,0,0,1-.69,2.77,4.32,4.32,0,0,1-2.93,2.57c-8,2.39-15.91,4.84-23.86,7.27a21,21,0,0,1-6.15.91,2.49,2.49,0,0,1-2.71-1.87,32.87,32.87,0,0,1-.92-3.47c-1.12-6.3-2.23-12.59-3.25-18.91-.34-2.12-.43-4.29-.56-6.44a6.27,6.27,0,0,1,.87-3.43c.72-1.28,1.55-2.24,2.78-2.14a30.17,30.17,0,0,1,2.83-1.89,2.81,2.81,0,0,1,1.83-.34,5,5,0,0,0,3.23-.57c1.64-.63,3.28-1.24,4.91-1.85a5.61,5.61,0,0,0,2.53-.49,15.55,15.55,0,0,1,4.06-.85c.51.49,1.12,1,1.64,1.57a1.63,1.63,0,0,1-.46,2.74C246.52,229.25,245.69,229.18,245.31,229.92Z"/><path class="ad8ae340-c419-4aec-b9f5-a162bc640a56" d="M248.76,321.52a16,16,0,0,1,2.9-.38,6,6,0,0,0,3.21-.79c3.12-1.63,6.25-3.24,9.33-4.94a41.22,41.22,0,0,1,10.15-4.23c1.09-.26,2.18-.47,3.27-.7a12.28,12.28,0,0,1,1.95,1A4.17,4.17,0,0,1,281,313c2,4.89,3.95,9.79,4.86,15,.15.86.22,1.74.29,2.62a3,3,0,0,1-.47,2.05,2.71,2.71,0,0,0-.48,1.31,2.8,2.8,0,0,1-1.33,2.16,17.7,17.7,0,0,1-4,2.2,144.78,144.78,0,0,0-19,8.61c-.71.37-1.38.81-2.07,1.21a2.69,2.69,0,0,1-3.15-.22c-.82-.63-1.56-1.36-2.33-2.05a4.07,4.07,0,0,1-1.13-2.33c-.51-2.26-1-4.53-1.54-6.78-.77-3.19-1.59-6.36-2.38-9.54-.2-.78-.42-1.55-.58-2.33C247.43,323.47,247.5,323.27,248.76,321.52Zm6.34,5.56a3.37,3.37,0,0,0,0,.71c1.08,4.59,2.16,9.17,3.27,13.75a5,5,0,0,0,.57,1c1.12-.56,2.11-1.07,3.12-1.55,3.38-1.61,6.75-3.29,10.17-4.81,2.63-1.17,5.34-2.13,8-3.2a15,15,0,0,0,1.44-.73,10.33,10.33,0,0,1-.88-1.57,13.24,13.24,0,0,1-.4-1.87,50.51,50.51,0,0,0-3.19-10.77,10.49,10.49,0,0,0-.76-1.3c-1.07.33-2.08.57-3,1-1.4.6-2.77,1.25-4.1,2a122.48,122.48,0,0,1-13.66,6.94A2.74,2.74,0,0,0,255.1,327.08Z"/><path class="ad8ae340-c419-4aec-b9f5-a162bc640a56" d="M263.74,278.73c-1.57.87-1.57.92-2.9.94a8.65,8.65,0,0,0-3.44.94c-2.77,1.24-5.52,2.53-8.3,3.77s-5.42,2.35-8.14,3.52c-.21.1-.41.24-.72.42a12.51,12.51,0,0,0,.11,1.34q1.25,6.72,2.53,13.43a3.72,3.72,0,0,0,1.07,2.47,6.72,6.72,0,0,0,1.27-.36c1.51-.75,3-1.54,4.48-2.31a44.88,44.88,0,0,1,14.53-4.71,5.49,5.49,0,0,1,2.81.23c2,.77,2.45,1.45,2.09,3.91a5,5,0,0,1-2.93,1.36,39.12,39.12,0,0,0-14,4.68c-1.4.77-2.83,1.5-4.28,2.17-2.39,1.11-2.83,1.09-5.19-.11-1-.5-1.92-1.13-2.89-1.71a17.7,17.7,0,0,1-1.68-4.73q-1.48-7.53-2.89-15.07a9.29,9.29,0,0,1-.08-1.52l2.3-4.93a7,7,0,0,1,.75-.46l14.46-6.43c1.09-.49,2.19-1,3.3-1.42a8.22,8.22,0,0,1,5.4-.45,4.79,4.79,0,0,0,.75.08l.6-2.16,1.69-1a3.16,3.16,0,0,1,2.76,2.19,27.47,27.47,0,0,1,2.11,7.59c.3,2.38.52,4.77.82,7.15.15,1.19.37,2.37.6,3.54a6.7,6.7,0,0,1-.13,4.24,3.51,3.51,0,0,1-2.3,1.3,3,3,0,0,1-2.13-2.52c-.26-1.49-.51-3-.71-4.49-.33-2.54-.59-5.08-.95-7.61C264.35,281,264,280,263.74,278.73Z"/><path class="ad8ae340-c419-4aec-b9f5-a162bc640a56" d="M235.68,178.33c.57,1.91.45,2.24-.9,3.27a4.69,4.69,0,0,1-2.64,1,18.47,18.47,0,0,0-5.13,1.17,26,26,0,0,1-6,1.44,6.47,6.47,0,0,0-1,.29,11.51,11.51,0,0,0,0,1.18c.28,3.1.55,6.21.87,9.3s.7,6.36,1.08,9.53a6.66,6.66,0,0,0,.36,1.2,8.65,8.65,0,0,0,1.39.25c1.68,0,3.36.05,5,0a16.06,16.06,0,0,0,3.09-.34c4-.91,8.1-1.85,12.13-2.85,1.54-.38,3-1,4.59-1.47a6.71,6.71,0,0,0,.25-1.23c0-3.28,0-6.56-.08-9.83a26.18,26.18,0,0,0-.94-6.39c-.57-2.11-.45-2.33,1.3-3.93a2.32,2.32,0,0,1,2,.29,2.81,2.81,0,0,1,1.06,1.54,21.94,21.94,0,0,1,1.2,6.09,96.56,96.56,0,0,1,.41,13.17c0,.4-.06.8-.08,1.2a5.94,5.94,0,0,1-4,5.47,45.68,45.68,0,0,1-8,2.33c-2.34.51-4.69,1-7,1.62a22.84,22.84,0,0,1-6.63.87c-1.43-.05-2.88,0-4.31-.05a13.24,13.24,0,0,1-2.58-.43,4,4,0,0,1-3.09-3.32c-.56-2.74-1.16-5.48-1.5-8.25-.42-3.32-.57-6.68-.87-10-.14-1.59-.36-3.17-.52-4.76-.09-.79-.15-1.59-.21-2.39a2.84,2.84,0,0,1,1.66-3h1.67a10.37,10.37,0,0,1,4.63-1.56,36,36,0,0,0,4.39-1.18c1.55-.4,3.09-.78,4.65-1.13A4,4,0,0,1,235.68,178.33Z"/><path class="ad8ae340-c419-4aec-b9f5-a162bc640a56" d="M244.65,382.5a3.25,3.25,0,0,1-.7,2.84c-.3.14-.72.36-1.16.53a3.41,3.41,0,0,1-4.63-1.67,20.91,20.91,0,0,1-1.42-3.3c-1.31-3.95-2.61-7.89-3.83-11.87-2.8-9.17-5.49-18.38-8.34-27.53-3.37-10.76-6.54-21.57-9.25-32.51-3.36-13.58-6.74-27.15-9.63-40.84q-3.34-15.84-6.05-31.79c-.83-4.89-1.82-9.75-2.55-14.65-1-6.63-1.93-13.28-2.69-20-.94-8.34-1.62-16.71-2.51-25-.79-7.39-1.72-14.77-2.6-22.15q-.54-4.65-1.13-9.28c-.12-.95-.31-1.89-.46-2.84-.23-2.13-.43-4.27-.67-6.4-.56-4.9-1.15-9.8-1.69-14.71-.4-3.64-.73-7.29-1.11-10.93a5.21,5.21,0,0,0-.36-1.12.58.58,0,0,0,0-.43l0-3.84c0-.62,0-1.24,0-1.86a2.59,2.59,0,0,1,.93-2.46l1.41-.1c-.22,1.49-.43,3-.67,4.61l-1.29,1.62,1.93,1.3c-.06.72-.13,1.42-.22,2.4.15.54,1.06,1.21.65,2.15-.34.78-.83,1.5-1.31,2.35.28.2.51.39.76.55,1.4.9,1.48,1.54.33,2.82l-.54.58v1.78c.51.87,1.69,1.14,1.76,2.49l-1.29,1.57-.06,1.18,1.3,1.43c.05,2.35,1.38,4.49,1.33,7.24l-1.22,2.3a11.5,11.5,0,0,0,.65,1,8.89,8.89,0,0,0,.7.66,3.22,3.22,0,0,1-.17.71c-.17.35-.42.67-.6,1-.06.12,0,.31,0,.63l1.29,1.06-.6,1.8,1.44,1.22c.31,2.17.52,4.36-.83,6.46l2,1.59a7.46,7.46,0,0,1-.54,1.06,10.74,10.74,0,0,1-.89,1c1.72,2.12,1.72,2.12.58,4.44l1.68,2.26c.09,1.13-.53,1.94-.1,2.85a2.24,2.24,0,0,1-.55,2.64c-.08.08,0,.3-.06.61l1.5,1a2.2,2.2,0,0,1-.94,3.09l1.05,1.12a2.84,2.84,0,0,1-.77,2.89l1.77,1.17.13,2.15c-.2.86-1.38,1-1.37,1.93a3.9,3.9,0,0,0,.06.53c.42.79,1.63,1,1.7,2.35a8,8,0,0,1-.54.81,4.71,4.71,0,0,1-.59.56c-.55,1.27.17,2.12.63,2.93-.14,1.19-.28,2.29-.42,3.46l1.91,1.43-.24,2.08a4.47,4.47,0,0,1,.67,3.79l-1.37,1.59,1.5,1.7-1,2.47a7.82,7.82,0,0,1,1,1.38,6.83,6.83,0,0,1,.34,1.58l.85.7a5.44,5.44,0,0,1,0,3.53c1.19,1.3.64,3.12,1.28,4.6-.51.82-1,1.53-1.49,2.36l1.67,1.26c-.29,1.43,1,2.92-.42,4.3l1.66,1.27-1,1.85c0-.1,0,0,0,.05.63.71.2,1.77.66,2.43a7.43,7.43,0,0,1,1,2.63,10,10,0,0,0,.74,2,7,7,0,0,1,.45,4.22,6.84,6.84,0,0,1-.79,1.82c0,.78,1,1.28.81,2.32-.11.66,1,1.07,1.06,2a14.37,14.37,0,0,0,.66,2.69c-.2.35-.48.82-.81,1.36.12.29.28.64.43,1l-.29,1.87,2.26,2.87c.33,2-.13,3.95-.1,6,1.29,1.28,1.27,3.26,2.08,4.88l-.57,2.56.48,1c-.51,1.52-.52,3.05,1.37,3.79l.87,2.06c-.11,1.43-.22,2.85-.33,4.22l2,2.89c0,.72,0,1.52.07,2.31a8.5,8.5,0,0,0,1.39,5,8.82,8.82,0,0,1,.82,1.75l-1.2,2.23c.41,1.68.5,3.58,2.38,4.73-.08,1.14-.17,2.24-.28,3.73a3.41,3.41,0,0,0,1.5,2.33l-.12,1.35,1.17,1.53a9.67,9.67,0,0,1,.09,1.42,6.37,6.37,0,0,0,.91,3.9,3.59,3.59,0,0,1,.42,3,3.17,3.17,0,0,0,.3,2.47l1.94,1.83a5,5,0,0,1-.12,3.47c.21,1.78,1.61,2.48,2.15,3.51.44,1.39-.64,2.26-.71,3.31.39,1.26.77,2.47,1.2,3.82l1.25.75c.48,1.65.88,3.27,1.43,4.84a4,4,0,0,1-.09,3l.65,2.13,2.18,1.53c-.1.58-.17,1.12-.29,1.65a5.69,5.69,0,0,0,.21,3.53,23.44,23.44,0,0,1,1.36,4.56,6.59,6.59,0,0,0,.37,1l1.79.89a3.72,3.72,0,0,1,.07,4.53l2.25,2.95v4c1.51,1.29,1.57,3.14,2.17,4.77-.37,2,1,3.82.78,5.84,1.37,1.61,2.83,3.1,3.12,5.16.58.32.88,0,1.22-.19s.7-.35,1.16-.58a13.43,13.43,0,0,0,.26-5.1c.28.56.55,1.13.86,1.67S244.36,382,244.65,382.5Z"/><path class="ad8ae340-c419-4aec-b9f5-a162bc640a56" d="M244.35,243.2c.39-.93.67-1.57.93-2.23a158.57,158.57,0,0,0,5.65-17.8,5,5,0,0,1,2.33-3.39,10.77,10.77,0,0,1,1.26,0,3.15,3.15,0,0,1,3,3.57,11.08,11.08,0,0,1-.38,1.87,184.87,184.87,0,0,1-8,23.59,21.55,21.55,0,0,1-1.54,3,3.8,3.8,0,0,1-4,2,5.06,5.06,0,0,1-4.05-2.18,28.69,28.69,0,0,1-4.12-9.39,18.12,18.12,0,0,1-.25-2.44l1.61-1.55H238a4.39,4.39,0,0,1,4.18,2.27A27.47,27.47,0,0,0,244.35,243.2Z"/><path class="ec869d71-1686-4e15-8375-6c0e8dc8e88f" d="M232.39,203.63a5,5,0,0,1-3.25-2.49,23.43,23.43,0,0,1-3.23-9.69,5.32,5.32,0,0,1,.9-3.92,3.82,3.82,0,0,1,2.41-1,2.59,2.59,0,0,1,1.65,2.34,23.18,23.18,0,0,0,1.46,5.55,11.12,11.12,0,0,0,.67,1.23c.3-.76.53-1.25.7-1.75q2.66-7.71,5.3-15.4c.18-.53.38-1,.56-1.58a4,4,0,0,1,3.46-2.88,1.85,1.85,0,0,1,1.37,2.24,20.81,20.81,0,0,1-.77,3.5c-2.2,6.51-4.44,13-6.68,19.49-.15.45-.36.88-.55,1.32A4.28,4.28,0,0,1,232.39,203.63Z"/><path class="ec869d71-1686-4e15-8375-6c0e8dc8e88f" d="M341.44,73.86c1.44-.3,2.88-.59,4.32-.91s2.87-.68,4.3-1.06a3.61,3.61,0,0,0,.81-.45c.62-.09,1.25-.14,1.86-.28,1.38-.33,2.74-.73,4.13-1a2.86,2.86,0,0,1,3.53,1.37l-.15,1.31a2.7,2.7,0,0,1-1.63,1.52c-3.92,1.36-8,2.27-12,3.28-7.1,1.79-14.22,3.51-21.33,5.26-.46.12-.89.33-1.33.49h-2.2c-.14-1.58-.5-3.14.08-4.7a7.32,7.32,0,0,0,3.57-.94,9.6,9.6,0,0,0,4.05-1A19.67,19.67,0,0,0,335,75.32,23.48,23.48,0,0,0,341.44,73.86Z"/><path class="ad8ae340-c419-4aec-b9f5-a162bc640a56" d="M245.31,229.92c.38-.74,1.21-.67,1.81-1a1.63,1.63,0,0,0,.46-2.74c-.52-.59-1.13-1.08-1.64-1.57a15.55,15.55,0,0,0-4.06.85,5.61,5.61,0,0,1-2.53.49,16.12,16.12,0,0,1,5.81-1.92,3.43,3.43,0,0,1,3.93,3.39,1.92,1.92,0,0,1-.89,1.58A5.17,5.17,0,0,1,245.31,229.92Z"/><path class="f1760781-ac50-46c6-9ec5-a8d78c1a45e4" d="M240.45,120.3a3.77,3.77,0,0,0-.12-.91,1.79,1.79,0,0,0-2.13-1.33c-.52.09-1,.26-1.55.39,1.51-1.45,1.51-1.45,3.83-.68C240.91,118.59,241.29,119.43,240.45,120.3Z"/><path class="a345ff2f-604d-44c8-afe0-de9a07e4fd71" d="M203.26,718.28a8.86,8.86,0,0,0,.61-1.15c.71-2.2,1.38-4.42,2.1-6.62a7.36,7.36,0,0,1,.66-1.52,1.06,1.06,0,0,1,1.24-.5,1.09,1.09,0,0,1,.87,1,6.85,6.85,0,0,1-.18,2.12c-.91,2.89-1.88,5.76-2.87,8.62a8.87,8.87,0,0,1-1,1.92,2.06,2.06,0,0,1-3.29.4A4.15,4.15,0,0,1,201,722a12.49,12.49,0,0,1-1.67-3.68,1.34,1.34,0,0,1,.45-1.52,1.6,1.6,0,0,1,1.8,0C202.11,717.24,202.63,717.73,203.26,718.28Z"/><path class="ab613986-171b-4f14-9108-4e18c6ac744b" d="M195.77,677.43a3.61,3.61,0,0,1-1.09,0,1,1,0,0,1-.6-.68,6.64,6.64,0,0,0-2-4.22,4.21,4.21,0,0,1-.51-1.18l1-1.09c1.54.13,1.52,1.67,2.51,2.39a10.09,10.09,0,0,0,.66-1q1.37-2.93,2.7-5.86a3.81,3.81,0,0,1,2.45-2.39c.59.14.69.59.63,1.1a2.36,2.36,0,0,1-.19.69c-.6,1.39-1.2,2.78-1.83,4.16C198.32,671.93,197.11,674.53,195.77,677.43Z"/><path class="a345ff2f-604d-44c8-afe0-de9a07e4fd71" d="M198.33,697.3c.3-.7.54-1.18.71-1.68.55-1.58,1.05-3.17,1.6-4.75a7.53,7.53,0,0,1,.81-1.72,5.23,5.23,0,0,1,1.19-.92c.18.45.4.73.37,1a10.62,10.62,0,0,1-.39,2.32q-1.25,3.74-2.6,7.43c-.36,1-.8,1.94-2.16,2.17-2.08-1-2.27-3.17-2.83-5.16.21-1,.22-2.06,1.69-2.21C197.58,694.71,197.23,696.13,198.33,697.3Z"/><path class="ad8ae340-c419-4aec-b9f5-a162bc640a56" d="M187.15,146.36c.1,1.59.15,3.19.3,4.78q.57,6,1.22,11.94c.35,3.26.77,6.51,1.14,9.76.77,6.76,1.54,13.51,2.26,20.27.65,6,1.16,12.1,1.87,18.13.91,7.79,1.85,15.57,3,23.32.76,5.22,1.8,10.4,2.8,15.58q2.56,13.31,5.24,26.59c1.56,7.68,3.21,15.34,4.57,23.06a187.26,187.26,0,0,0,4.74,19.82c1,3.3,2.19,6.52,3.36,9.75q5.07,14,9,28.34c1.08,3.93,2.25,7.83,3.09,11.83a99.49,99.49,0,0,0,5.71,17.29c1.19,2.88,2.53,5.69,3.84,8.52a14.58,14.58,0,0,0,1,1.6,3.42,3.42,0,0,0,.8-.14,84.78,84.78,0,0,1,9.59-3.77c3.6-1.33,7.24-2.56,10.86-3.83.3-.11.6-.23.91-.31,9.26-2.51,18.26-5.87,27.46-8.61,1.75-.52,3.44-1.29,5.17-1.9a43.08,43.08,0,0,1,5-1.61c4.15-.9,8.18-2.25,12.2-3.55,3.13-1,6.31-1.78,9.5-2.5,5.46-1.24,10.87-2.71,16.36-3.8,7.84-1.55,15.69-3.05,23.61-4.19,3.95-.58,7.9-1.24,11.84-1.88,6.79-1.09,13.58-2.17,20.36-3.31,2.44-.41,4.86-1,7.28-1.52a52.06,52.06,0,0,1,10.49-1,2.76,2.76,0,0,1,2,.57v0c.23.76.7,1.48.32,2.33s-.68,1.57-1,2.38l-1.64,1c-2,0-4.1,0-6.13.15a23.34,23.34,0,0,0-6.91,1.3l.05,0a11.69,11.69,0,0,0-1.19.1l-9.88,1.76c-3,.53-6,1.07-9,1.55-6.85,1.09-13.71,2.1-20.56,3.22-5.43.88-10.83,1.9-16.25,2.83-6.3,1.09-12.46,2.74-18.66,4.23a1.61,1.61,0,0,0-.39.27l.05,0A49.42,49.42,0,0,0,309.92,380c-.53-.14-.89.2-1.27.47a13.93,13.93,0,0,0-4.87,1.46l0,0a39.25,39.25,0,0,0-12.13,3.86c-.55-.14-.9.22-1.28.49a21,21,0,0,0-6.39,1.91c-1-.16-1.62.95-2.56.91a7.17,7.17,0,0,0-2.67.73,1.89,1.89,0,0,0-.38.27,22.24,22.24,0,0,0-6.32,1.93l0,0a10.09,10.09,0,0,0-1.37.3,75.94,75.94,0,0,1-7.66,2.33,18.49,18.49,0,0,0-3,1.25l0,0a10.71,10.71,0,0,0-3.9,1.45l.05,0a19.92,19.92,0,0,0-6,2c-.54-.14-.84.28-1.22.53a4.76,4.76,0,0,0-2.62.91,9.77,9.77,0,0,0-4.1,2,4.26,4.26,0,0,0-2.5,1.34l.06-.05a8,8,0,0,1-3.33.08l-.91-1.38c.05-.47.27-1,.11-1.38-.7-1.56-1.2-3.24-2.55-4.42l-1.85-3.8a7,7,0,0,0-1.44-3.46l0,.05a4.28,4.28,0,0,0-1-2.44l0,.05a4.54,4.54,0,0,0-1-2.44l0,0a10,10,0,0,0-1.48-3.88l0,.05c-.61-2-1.22-4-1.86-6a9.29,9.29,0,0,0-.55-1.25l0,0c-.7-3.18-1.39-6.35-2.1-9.52a2.29,2.29,0,0,0-.35-.6l0,0c-.12-.62-.18-1.26-.35-1.86q-1.38-4.95-2.82-9.89a18.67,18.67,0,0,0-.71-1.74l0,.05c-.53-1.88-1.05-3.77-1.6-5.65,0-.2-.28-.35-.42-.52l-.42-1.47a2.27,2.27,0,0,0,0-.69c-.69-2.09-1.39-4.16-2.1-6.24,0-.11-.23-.18-.35-.27l-.45-1.44a28.5,28.5,0,0,0-2.22-6.62c0-.06-.14-.07-.21-.11l-.44-1.43a2.3,2.3,0,0,0,0-.7,103.46,103.46,0,0,1-3.36-11.05,2.75,2.75,0,0,0-.48-.74c-.52-.56-.32-1.27-.41-1.92a9.38,9.38,0,0,0-.12-1.42c-1.49-5.9-2.47-11.9-3.64-17.86-1.62-8.32-3.42-16.6-5.09-24.91-1.55-7.68-3.12-15.35-4.5-23.07-1.26-7.08-2.45-14.18-3.15-21.35-.38-3.9-1-7.77-1.45-11.66-.3-2.46-.53-4.93-.79-7.39-.6-5.89-1.17-11.78-1.82-17.66-1.1-9.85-2.28-19.69-3.35-29.55-.6-5.64-1-11.31-1.6-17-.29-2.94-.78-5.86-1.11-8.8s-.58-6-.88-9.07c-.19-1.91-.45-3.81-.63-5.72-.14-1.59-.19-3.18-.32-4.78a3.89,3.89,0,0,1,.65-2.25c1.55-.86,3.07-.45,4.6,0l.95,1.36c.18,2.22.28,4.45.56,6.65s.47,4.42.57,6.65c.09,1.91.3,3.81.55,5.7.7,5.2,1.53,10.39,1.87,15.64A7.32,7.32,0,0,0,187.15,146.36Z"/><path class="e1335ee0-7b59-4daf-a84c-5b5bff941de3" d="M183.86,105l0,3.84h-.46c0-.86,0-1.72,0-2.59A1.46,1.46,0,0,1,183.86,105Z"/><path class="e1335ee0-7b59-4daf-a84c-5b5bff941de3" d="M187.15,146.36a7.32,7.32,0,0,1-.34-1.36c-.34-5.25-1.17-10.44-1.87-15.64-.25-1.89-.46-3.79-.55-5.7-.1-2.23-.29-4.44-.57-6.65s-.38-4.43-.56-6.65l.61-1.08a5.21,5.21,0,0,1,.36,1.12c.38,3.64.71,7.29,1.11,10.93.54,4.91,1.13,9.81,1.69,14.71.24,2.13.44,4.27.67,6.4a1.46,1.46,0,0,0-.47,1.29C187.21,144.61,187.18,145.48,187.15,146.36Z"/><path class="b7680bbb-5749-4cad-862f-d8343478496a" d="M329.52,267.63c-.26-1.11,0-1.5.74-1.62a.51.51,0,0,1,.1.83A7.82,7.82,0,0,1,329.52,267.63Z"/><path class="a345ff2f-604d-44c8-afe0-de9a07e4fd71" d="M380.63,462.77c0-.88,0-1.6,0-2.31.05-1.8.37-2.22,2.07-2.67.46-.13.92-.24,1.63-.42a28.07,28.07,0,0,1,2.67,1,2.45,2.45,0,0,1,1.35,2.34,4.64,4.64,0,0,1-3.13,4.59,2.44,2.44,0,0,1-2.65-.55C382,464.13,381.35,463.51,380.63,462.77Zm3.35-2.55c-.57,1-.67,1.85.17,2.61,1.35-1,1.35-1,.89-2.47Z"/><path class="ab613986-171b-4f14-9108-4e18c6ac744b" d="M214.16,641.07l-2.87-3c0-.73-.08-1.52,0-2.31a2.41,2.41,0,0,1,1.64-2.15,4.68,4.68,0,0,1,6,1.54,1.83,1.83,0,0,1,.41,1.57c-.06.31-.18.61-.27.92C218.41,639.83,217.57,641,214.16,641.07Zm1.43-5.35c-1,.14-1,.7-1,1.24s-.08,1.28.85,1.51A2,2,0,0,0,215.59,635.72Z"/><path class="e13c5da5-30fd-450b-b7cb-0904f8ca9fbd" d="M408.17,732.87l-3.07,4.53a9.87,9.87,0,0,1-1,.24,1.76,1.76,0,0,1-2-1.32,22.54,22.54,0,0,1-.8-3.24c-.17-1-.58-2-.67-3-1.65,0-2.17,1.22-3.13,2,.31.68.59,1.3.93,2a4.55,4.55,0,0,1-.87,1,5.83,5.83,0,0,1-3.61,1.06A9.12,9.12,0,0,1,391,736a2,2,0,0,1,.32-2.58,13.33,13.33,0,0,1,1.42-1.29,78.48,78.48,0,0,0,6.22-4.84c1.22-1.13,2.61-.75,3.18.87.44,1.28.69,2.62,1,3.93.19.76.37,1.53.54,2.25.65.11.77-.32,1-.63.5-.82,1-1.64,1.48-2.47a2.56,2.56,0,0,1,2.88-1.21c.47.09.92.31,1.38.35a12.93,12.93,0,0,0,1.71-.07c.07-.75.11-1.37.18-2a2.67,2.67,0,0,1,3.52-2.51,6.88,6.88,0,0,1,3.73,2.06c1-.39,1.67-1.58,2.84-1.12.88.35,1.7.84,2.66,1.33.26-.24.56-.47.82-.74.77-.81,1.51-1.63,2.22-2.4l3.25-.57.88,1.33c-.39,2.07-2.15,1.69-3.31,2.05-1.34.95-1.5,2.82-3.06,3.35-1.64.31-2.57-1.23-4.09-1.49a12.26,12.26,0,0,0-1.39,1.22,5.28,5.28,0,0,1-5.64,1.79C412.71,734,410.48,733.06,408.17,732.87Z"/><path class="a345ff2f-604d-44c8-afe0-de9a07e4fd71" d="M418.86,659.86a4.55,4.55,0,0,1,1,.9,1.41,1.41,0,0,1-.21,1.58,10.39,10.39,0,0,1-4.2,3.1,3.75,3.75,0,0,1-1.64.09,9.36,9.36,0,0,1-1.43-.36l-1.73,1.26c-1.51.61-2.61-.28-3.84-1.09-.48.42-1,.8-1.41,1.25-1.32,1.35-2.75,1.9-4.49.8a1.72,1.72,0,0,0-.46-.11c-.61.11-.57.71-.81,1.09a1.93,1.93,0,0,1-1.67,1c-.55-.35-1.2-.78-2-1.28-.51.72-1,1.42-1.44,2a2.35,2.35,0,0,1-3.19-.94c-.35-.51-.56-1.17-1.37-1.37-1,1.42-1,3.62-3.12,4.36a3.49,3.49,0,0,1-2.6-2.48,10.94,10.94,0,0,0-.25,3,7.81,7.81,0,0,1-.94,2.79c-.38,0-.81.16-1.11,0a1.36,1.36,0,0,1-.71-.87,12.37,12.37,0,0,1,0-3.1c.58-3.45,1.26-6.89,1.88-10.23,1.29-.48,1.73-.4,2.2.29a4.16,4.16,0,0,1,.6,2.53,10.86,10.86,0,0,0,.74,4.15c1-1.54,1.12-3.36,2.39-4.54a3.37,3.37,0,0,1,.66-.35c1.88.58,2.15,2.58,3.14,3.92.88-.52.76-1.36,1.1-2,.19-.34.28-.75.47-1.09a1.06,1.06,0,0,1,1.48-.27,24.05,24.05,0,0,1,1.64,1.79c1-.67.45-2.44,2-2.72,1.13.24,1.51,1.54,2.55,2,.75.2,1.2-.24,1.56-.81a4,4,0,0,1,2.55-1.87c1.32,0,2,1.09,3,1.62l2.1-1.66a7.15,7.15,0,0,1,1.44.2,2.79,2.79,0,0,0,3.26-.76A8.53,8.53,0,0,1,418.86,659.86Z"/><path class="a345ff2f-604d-44c8-afe0-de9a07e4fd71" d="M370,728.42a5.72,5.72,0,0,1-.86-2.34c-.41-2.44-.9-4.86-1.24-7.3a34.29,34.29,0,0,1-.21-4.06,2,2,0,0,1,1.05-1.77,5.79,5.79,0,0,1,2.14-1c1.73-.17,3.17-1.07,4.78-1.52.61-.17,1.22-.36,1.93-.57l1.79,1.07c.3-.76.55-1.5.89-2.2a1.19,1.19,0,0,1,1.4-.65,1.16,1.16,0,0,1,.84,1.06,5.93,5.93,0,0,1-.12,1.89c-1.05,3.27-2.13,6.53-3.27,9.77a6.07,6.07,0,0,1-1.18,1.78,3.31,3.31,0,0,1-1,.56,3.16,3.16,0,0,1-2.64-1.94c-.48-1.1-.92-2.21-1.29-3.35a1.24,1.24,0,0,1,.52-1.48,1.34,1.34,0,0,1,1.57.12,9.26,9.26,0,0,1,.87.8c.22.2.47.38.81.66,1.39-1.75,1.48-3.85,2.5-6-1.48.55-2.51.91-3.52,1.33a16.35,16.35,0,0,1-5.53,1.59,15.14,15.14,0,0,0-.16,1.75,82.15,82.15,0,0,0,1.83,9.43,2.57,2.57,0,0,0,.87.07,89.29,89.29,0,0,0,9.85-3.16,4.34,4.34,0,0,0,.4-2.53c0-1.19-.05-2.39,0-3.59a3.22,3.22,0,0,1,.26-1.39,1.26,1.26,0,0,1,.91-.61c.32,0,.66.33,1,.53a.29.29,0,0,1,.1.22c0,2,1.07,4,.33,6.14a5.16,5.16,0,0,0-.16,1.42,2.19,2.19,0,0,1-1.66,2.1c-1.68.54-3.34,1.12-5,1.64-1.52.48-3.07.88-4.58,1.38A8.91,8.91,0,0,1,370,728.42Z"/><path class="a345ff2f-604d-44c8-afe0-de9a07e4fd71" d="M390.67,707.7a2.62,2.62,0,0,1,2.44,0,2.84,2.84,0,0,1,1.11,1.78,12.73,12.73,0,0,1,.14,5.46c-.06.39-.14.77-.19,1.06a1.41,1.41,0,0,0,1.83.9,3,3,0,0,0,1.91-1.34,9.53,9.53,0,0,1,2.8-2.82,6.09,6.09,0,0,1,2.59.83,4.31,4.31,0,0,0,2.29.94,4,4,0,0,0,1.94-1.88,14.79,14.79,0,0,1,.86-1.44c.69-.93,1.28-1,2.47-.47a4.1,4.1,0,0,0,.41.22c.07,0,.16,0,.25,0,.51-.62.22-1.37.32-2.06.14-1.05.36-1.22,1.8-1.34.7.84,1.36,1.71,2.11,2.51a3,3,0,0,0,.95.49,3.35,3.35,0,0,0,2.31-1.36,7.19,7.19,0,0,1,3.37-2.1l3.85.49a.79.79,0,0,1,.22,1.22,1.91,1.91,0,0,1-1.77,1c-.79,0-1.57-.16-2.62-.27-.72.67-1.57,1.49-2.47,2.27a8.21,8.21,0,0,1-3.09,1.32l-2.58-.69-2.19,2-2.39-.28c-.52.48-1.08.93-1.57,1.45a4,4,0,0,1-5,.88c-.57-.27-1.12-.58-1.76-.92-.32.23-.74.39-.92.69a8.93,8.93,0,0,1-3.61,3.11l-4.87.18c-.12-.32-.28-.66-.39-1a6.77,6.77,0,0,0-.43-1.59,13.24,13.24,0,0,1-1.21-3.61A7.24,7.24,0,0,1,390.67,707.7Z"/><path class="a345ff2f-604d-44c8-afe0-de9a07e4fd71" d="M414.1,690.73c-1.56,1-2.36,2.84-4.48,3.16l-2.36-.85c-1.44.4-2,2-3.37,2.66-1.74.7-3.34-.22-5-.83-1.5.71-3,1.74-4.58.17a10.72,10.72,0,0,1-2,.8,8.85,8.85,0,0,1-2-.12c-.79,1.18-1.62,2.43-2.47,3.67a1.41,1.41,0,0,1-2,.58,1.29,1.29,0,0,1,.14-1.64,42.21,42.21,0,0,0,4.15-8.35c.47-1.26.73-2.61,1.17-3.89a34.77,34.77,0,0,1,1.52-3.76c.39-.8.76-.83,2-.51a2,2,0,0,1,.11,1.83c-.33,1.07-.75,2.11-1.05,3.18-.42,1.54-.77,3.09-1.12,4.64,0,.21.09.45.15.75.94-.21,1.41-1.55,2.8-.84.25.44.63,1.11,1,1.87l2.63-1.11,3.78,1.35a14.5,14.5,0,0,0,1.28-1c.59-.54,1.13-1.13,1.7-1.69a2,2,0,0,1,2.43-.41c.57.25,1.16.47,1.68.69,1.83-.74,2.49-2.93,4.67-3.22l2.32,1.17a5.53,5.53,0,0,0,.8-.74,4.75,4.75,0,0,1,3.61-2.07,10.17,10.17,0,0,1,1.39-.3,4.2,4.2,0,0,1,1.25.55c-.61,1.94-2.22,2-3.66,2.4L419.35,690C417.45,691.82,416.68,691.94,414.1,690.73Z"/><path class="a345ff2f-604d-44c8-afe0-de9a07e4fd71" d="M402,754a4.59,4.59,0,0,0-.6,1.16,17.33,17.33,0,0,0-.12,1.91,5.08,5.08,0,0,1-.76,2.43c-1.51.17-2-.08-2-1.25-.07-1.43,0-2.86,0-4.26l1.21-1.64c.45-1.26-.25-3.19,2-3.61a5.06,5.06,0,0,1,1.6,2c.51.82,1,1.65,1.5,2.45a5.71,5.71,0,0,0,.93,1.09,2.2,2.2,0,0,0,3.21,0,16.66,16.66,0,0,0,1.44-1.59c.47-.54.87-1.15,1.37-1.65,1.62-1.59,2.82-1.76,4.95-.75a3.23,3.23,0,0,0,.47.11c.5-.11.45-.56.55-.93.23-.82.23-.82,1.35-1.57,1.53.28,1.52,2.47,3.17,2.65.74-.17.88-.83,1.12-1.41,1.22-3,2.46-3.48,5.3-1.89.49.26,1,.56,1.49.88,1.68-.74,1.93-3,3.87-3.57a2.08,2.08,0,0,1,.15,2.57,17.41,17.41,0,0,1-2,3,2.41,2.41,0,0,1-3.23.51c-.84-.46-1.68-.9-2.54-1.32-.12-.07-.31,0-.63,0-.22.41-.47.88-.71,1.35s-.42.86-.63,1.3a2.38,2.38,0,0,1-3.14,1.42c-.3-.09-.61-.16-1-.25-1.23,1.22-2.57,1-3.93.23-.14-.08-.29-.14-.43-.23-1.39-.84-2.46-.86-3.62.86a16,16,0,0,1-2.58,2.82,3.5,3.5,0,0,1-4.79.21,17.26,17.26,0,0,1-2.09-1.93A10.47,10.47,0,0,1,402,754Z"/><path class="a345ff2f-604d-44c8-afe0-de9a07e4fd71" d="M361.62,667.31a5.52,5.52,0,0,1,3.58-1.79c1.25-.12,2.48-.55,3.74-.75a1.34,1.34,0,0,1,1.49,1.82,1.69,1.69,0,0,1-.77.85,11.35,11.35,0,0,1-2.07.58c-1.25.24-2.51.42-3.83.64-.12.3-.36.63-.3.87a26,26,0,0,1,.39,5.71,9.06,9.06,0,0,0,.2,1.22c1.32.23,2.54.6,3.55-.6a4.51,4.51,0,0,0-1.19-2.84,11,11,0,0,1-.94-1.36,1.14,1.14,0,0,1,.48-1.45,1,1,0,0,1,1.32.15c.55.55,1,1.18,1.57,1.84a5.74,5.74,0,0,0,1.62-2.65c.76-1.59,1.47-3.19,2.22-4.78a3.49,3.49,0,0,1,.64-1,1.36,1.36,0,0,1,.81-.44,4.68,4.68,0,0,1,1.13.24c-.14,2.45-1.61,4.26-2.39,6.32s-1.79,3.89-2.7,5.81c.28.15.42.3.54.29,1.35-.14,2.69-.29,4-.48a2.13,2.13,0,0,0,.76-.41,2.39,2.39,0,0,0,.14-2.15,13.22,13.22,0,0,1-.23-4.52c0-.41.39-.79.56-1.11.76-.07,1.16.29,1.19.78.13,2.54.85,5,.63,7.6-.12,1.46-.5,2.06-1.86,2.4a28.56,28.56,0,0,1-3.05.52c-1.89.25-3.78.49-5.68.7a22.81,22.81,0,0,1-3.09.21,1.94,1.94,0,0,1-2.17-2c-.06-.72,0-1.44,0-2.16a20.39,20.39,0,0,0-.32-4A8.86,8.86,0,0,1,361.62,667.31Z"/><path class="a345ff2f-604d-44c8-afe0-de9a07e4fd71" d="M378.41,753.84a1.67,1.67,0,0,1,1.4-1.22c2.25-.18,4-1.51,5.88-2.49,1.13-.58,2.28-1.12,3.45-1.6a4.83,4.83,0,0,1,3.22-.17c1.42,1.76,1.7,2.51,3.08,8.3-.06.24-.17.54-.23.85a3.37,3.37,0,0,1-2.27,2.55c-.81.33-1.64.63-2.43,1-2.11,1-4.26,1.83-6.27,2.94s-3.43.14-3.94-1.83C379.58,759.4,379,756.59,378.41,753.84Zm5,7.78c1.28-.06,2.23-.86,3.3-1.31s2.19-.94,3.3-1.38,2.27-.66,3.07-1.69c-.52-2.19-.68-4.44-2.12-6.38a12.1,12.1,0,0,0-1.82.56c-2.4,1.21-4.78,2.47-7.17,3.72-.06,0-.1.12-.21.28C382.34,757.38,382.39,759.56,383.41,761.62Z"/><path class="a345ff2f-604d-44c8-afe0-de9a07e4fd71" d="M375.46,738.3a6.81,6.81,0,0,0-.07,1.47c.31,1.73.68,3.44,1.06,5.15,0,.21.25.38.42.61a4.86,4.86,0,0,0,2.19-.85,24.34,24.34,0,0,1,6.09-2.07,2.39,2.39,0,0,1,2.53.7,1.05,1.05,0,0,1-.7,1.41c-.59.21-1.23.31-1.84.49a19.26,19.26,0,0,0-5.3,2.16,8.11,8.11,0,0,1-1.29.63,3,3,0,0,1-3.91-1.77c-.47-1.68-.81-3.4-1.19-5.11a6.45,6.45,0,0,0-.16-1.18c-.65-1.59-.18-3,.83-4.38,2.35-1.07,4.79-2.25,7.29-3.28a15.92,15.92,0,0,1,3.13-.62l1.26-1.1a2.05,2.05,0,0,1,1.59,1.74c.33,1.55.64,3.11.89,4.68.19,1.18.25,2.37.39,3.73l-.94,1a1.77,1.77,0,0,1-1.31-1.68c-.17-1.42-.34-2.84-.53-4.26a10.64,10.64,0,0,0-.34-1.26,7.17,7.17,0,0,0-1.63-.11,7.5,7.5,0,0,0-1.82.61c-2,.87-3.92,1.78-5.87,2.69A6.44,6.44,0,0,0,375.46,738.3Z"/><path class="a345ff2f-604d-44c8-afe0-de9a07e4fd71" d="M380.05,702.82A42.2,42.2,0,0,1,372.1,705a9.91,9.91,0,0,1-3.54.41,8.55,8.55,0,0,1-2.05-.57,2,2,0,0,1-1.17-1.43,16.06,16.06,0,0,1-.39-1.63c-.23-1.9-.41-3.8-.62-5.7-.11-1-.27-2.05-.36-3.07a10,10,0,0,1,.09-1.36c1.27-1,2.77-1,4.13-1.34l4-1.1,1.3,1.29c-.42.38-.7.82-1.08.94-1.45.42-2.94.72-4.41,1.11a11.55,11.55,0,0,0-1.5.62c-.56,1.62.45,3,.27,4.57a8.56,8.56,0,0,0,.73,4.52,4.34,4.34,0,0,0,3,.2c2.35-.47,4.66-1.07,7-1.64a5.9,5.9,0,0,0,1-.42,25.58,25.58,0,0,0-.07-8.41,1.1,1.1,0,0,1,1.42-.79,3.84,3.84,0,0,1,.67,1.06,13.2,13.2,0,0,1,.66,4c-.05,1.28,0,2.56,0,3.84A3.49,3.49,0,0,1,380.05,702.82Z"/><path class="ab613986-171b-4f14-9108-4e18c6ac744b" d="M368.69,695.17l1.1-1.58c.35.11.66.12.77.27a3.18,3.18,0,0,1,.48,1.06,2.76,2.76,0,0,0,.93,1.78,2.69,2.69,0,0,0,.51-.68c.66-1.88,1.28-3.78,1.94-5.66a7.08,7.08,0,0,1,.86-1.69.82.82,0,0,1,1.28-.15,2,2,0,0,1,.09,1.81q-1.45,4.42-3,8.85a2.33,2.33,0,0,1-2,1.74C369.35,699.89,369.4,697.47,368.69,695.17Z"/><path class="a345ff2f-604d-44c8-afe0-de9a07e4fd71" d="M387.46,640.58,385.05,638a20.42,20.42,0,0,1,0-2.47,2.56,2.56,0,0,1,2.06-2.37c1.95-.45,3.8-.36,5.29,1.26a2.07,2.07,0,0,1,.53,2.19,14.35,14.35,0,0,1-.63,1.81,3.3,3.3,0,0,1-3.55,2.24Zm1.79-5.1a1.83,1.83,0,0,0-.7,2.54C389.89,637.69,390,637.2,389.25,635.48Z"/><path class="ab613986-171b-4f14-9108-4e18c6ac744b" d="M206.16,463.81c-.13-.78-.19-1-.2-1.25-.09-2.82.51-3.6,3.2-4.13a4.82,4.82,0,0,1,4.75,2.57,1.87,1.87,0,0,1,.07.22c.32,1.37-1,4.12-2.33,4.68a8.1,8.1,0,0,1-1.37.44,1.86,1.86,0,0,1-1.78-.43Zm3.31-2.44c-.23,1-.42,1.83.55,2.45a1.79,1.79,0,0,0,.37-2.5Z"/><path class="ad8ae340-c419-4aec-b9f5-a162bc640a56" d="M263.1,60.92a17.24,17.24,0,0,1-.22-2c0-1.51,0-3,.05-4.55a6.34,6.34,0,0,1,1.41-3.9A44.47,44.47,0,0,1,269.76,49a10.51,10.51,0,0,1,10.35,4.17,3.29,3.29,0,0,1,.69,2,13.18,13.18,0,0,1-3.26,9.27,7.47,7.47,0,0,1-4.85,2.31c-.31,0-.64,0-.95,0A5,5,0,0,1,267.26,65C266.05,63.66,264.67,62.45,263.1,60.92Zm6.65-5A31.88,31.88,0,0,0,270,59.5c.16,1,.66,1.8,1.81,1.82,1.49-1.53,1.75-2,1.92-3.75a3.35,3.35,0,0,0-.28-2.42,2.13,2.13,0,0,0-1.88-.55Z"/></svg>